<svg width="60" height="60" viewBox="0 0 60 60" fill="none" xmlns="http://www.w3.org/2000/svg">
<circle cx="30" cy="30" r="30" fill="#1DA1F2"/>
<path d="M18.5001 18C18.1465 18 17.8073 18.1405 17.5573 18.3905C17.3072 18.6406 17.1667 18.9797 17.1667 19.3333V26.6667C17.1667 28.92 18.5401 30.84 20.5001 31.6267V40C20.5001 40.5304 20.7108 41.0391 21.0859 41.4142C21.4609 41.7893 21.9696 42 22.5001 42C23.0305 42 23.5392 41.7893 23.9143 41.4142C24.2894 41.0391 24.5001 40.5304 24.5001 40V31.6267C26.4601 30.84 27.8334 28.92 27.8334 26.6667V19.3333C27.8334 18.9797 27.6929 18.6406 27.4429 18.3905C27.1928 18.1405 26.8537 18 26.5001 18C26.1465 18 25.8073 18.1405 25.5573 18.3905C25.3072 18.6406 25.1667 18.9797 25.1667 19.3333V24.6667C25.1667 24.8435 25.0965 25.013 24.9715 25.1381C24.8465 25.2631 24.6769 25.3333 24.5001 25.3333C24.3233 25.3333 24.1537 25.2631 24.0287 25.1381C23.9037 25.013 23.8334 24.8435 23.8334 24.6667V19.3333C23.8334 18.9797 23.6929 18.6406 23.4429 18.3905C23.1928 18.1405 22.8537 18 22.5001 18C22.1465 18 21.8073 18.1405 21.5573 18.3905C21.3072 18.6406 21.1667 18.9797 21.1667 19.3333V24.6667C21.1667 24.8435 21.0965 25.013 20.9715 25.1381C20.8465 25.2631 20.6769 25.3333 20.5001 25.3333C20.3233 25.3333 20.1537 25.2631 20.0287 25.1381C19.9037 25.013 19.8334 24.8435 19.8334 24.6667V19.3333C19.8334 18.9797 19.6929 18.6406 19.4429 18.3905C19.1928 18.1405 18.8537 18 18.5001 18ZM41.0067 18C40.8334 18 40.6601 18.12 40.5001 18.2133L35.8334 21V26H30.5001V28.6667H31.8334L33.1667 42H41.1667L42.5001 28.6667H43.8334V26H38.5001V22.4533L41.8334 20.4533C42.5001 20.08 42.6734 19.3333 42.2867 18.6667C42.0067 18.1867 41.5134 17.9333 41.0067 18Z" fill="white"/>
</svg>
