<svg width="421" height="368" viewBox="0 0 421 368" fill="none" xmlns="http://www.w3.org/2000/svg">
<path d="M418.408 56.2817C418.205 54.4868 416.853 53.3896 414.72 53.212C400.733 52.0577 386.669 51.4488 372.618 51.6264C365.453 51.7216 358.263 51.9182 351.117 52.4065C346.008 52.7553 340.67 52.971 335.898 54.5692C335.492 41.4978 333.302 2.49917 333.302 2.49917C324.328 0.304744 267.363 0.215953 210.499 0.716993C153.635 0.215953 96.6631 0.304744 87.6956 2.49917C87.6956 2.49917 85.5061 41.5042 85.0999 54.5692C80.3274 52.971 74.99 52.7617 69.8812 52.4065C62.7351 51.9182 55.5446 51.7152 48.3795 51.6264C34.3222 51.4425 20.2585 52.0577 6.27735 53.212C4.14495 53.3896 2.79316 54.4868 2.59008 56.2817C-0.16427 80.7248 -2.36013 106.792 9.17131 130.011C19.5668 150.94 40.7384 165.971 66.3653 173.068C73.3083 174.99 80.4543 176.252 87.721 176.95C93.9976 177.546 100.966 178.041 107.382 177.229C116.496 192.888 129.652 206.524 148.932 215.156C153.705 217.293 158.706 219.081 163.865 220.534C163.827 224.079 163.98 229.077 163.929 231.734C163.821 237.48 163.554 243.22 163.129 248.96C162.241 260.89 160.825 272.769 158.731 284.597C156.789 295.569 154.46 306.586 150.957 317.292C149.269 322.448 147.269 327.566 144.579 332.424C143.335 334.669 141.958 336.87 140.428 338.995C139.533 340.232 132.996 343.016 131.689 343.688C131.524 343.771 131.359 343.859 131.194 343.942C130.147 344.475 129.392 345.445 129.436 346.491C129.55 349.371 131.562 350.462 134.513 351.565C138.359 353.005 142.281 354.33 146.184 355.669C153.889 358.301 161.695 360.762 169.71 362.671C182.879 365.804 196.537 367.25 210.213 367.497C210.213 367.497 237.934 366.799 251.281 363.622C259.297 361.713 267.103 359.252 274.807 356.62C278.71 355.288 282.632 353.963 286.478 352.517C289.423 351.413 291.441 350.322 291.555 347.443C291.6 346.396 290.845 345.426 289.797 344.893C289.632 344.811 289.467 344.722 289.302 344.639C287.995 343.967 281.452 341.189 280.563 339.946C279.034 337.822 277.657 335.627 276.413 333.376C273.716 328.517 271.716 323.399 270.035 318.243C266.538 307.537 264.209 296.521 262.26 285.549C260.166 273.72 258.744 261.847 257.862 249.911C257.437 244.178 257.17 238.432 257.063 232.686C257.005 229.743 257.202 224.358 257.101 220.547C262.267 219.094 267.28 217.299 272.059 215.162C291.34 206.53 304.496 192.894 313.609 177.235C320.025 178.047 326.994 177.552 333.27 176.956C340.537 176.265 347.683 175.003 354.626 173.075C380.253 165.978 401.418 150.953 411.82 130.017C423.352 106.798 421.156 80.7248 418.401 56.288L418.408 56.2817ZM50.2009 134.057C42.8708 126.18 38.6822 116.819 35.3503 107.35C31.9613 97.7094 28.1662 87.473 29.9749 77.3697C39.2216 77.6932 48.4493 77.782 57.7024 77.4141C66.232 77.0716 77.2621 77.3761 84.9349 73.7927C85.2459 94.0689 87.1625 114.301 91.4844 134.12C93.1281 141.668 95.2288 149.316 97.9451 156.807C79.2295 154.371 62.0116 146.748 50.2009 134.057ZM385.647 107.35C382.316 116.825 378.127 126.186 370.797 134.057C358.986 146.748 341.768 154.371 323.053 156.807C325.769 149.316 327.87 141.668 329.513 134.12C333.835 114.301 335.752 94.0689 336.063 73.7927C343.736 77.3761 354.766 77.0716 363.295 77.4141C372.548 77.782 381.776 77.6995 391.023 77.3697C392.832 87.473 389.036 97.7094 385.647 107.35Z" fill="#FDE027"/>
</svg>
