<svg width="24" height="24" viewBox="0 0 24 24" fill="none" xmlns="http://www.w3.org/2000/svg">
<rect width="24" height="24" rx="4" fill="#1DA1F2"/>
<path d="M6.93333 16.9548C6.71111 17.0436 6.5 17.0241 6.3 16.8961C6.1 16.7685 6 16.5825 6 16.3381V13.8548C6 13.6992 6.04444 13.5603 6.13333 13.4381C6.22222 13.3159 6.34444 13.2381 6.5 13.2048L11.3333 12.0048L6.5 10.8048C6.34444 10.7714 6.22222 10.6936 6.13333 10.5714C6.04444 10.4492 6 10.3103 6 10.1548V7.67142C6 7.42698 6.1 7.24076 6.3 7.11276C6.5 6.9852 6.71111 6.96587 6.93333 7.05476L17.2 11.3881C17.4778 11.5103 17.6167 11.7159 17.6167 12.0048C17.6167 12.2936 17.4778 12.4992 17.2 12.6214L6.93333 16.9548Z" fill="white"/>
</svg>
