<svg width="60" height="60" viewBox="0 0 60 60" fill="none" xmlns="http://www.w3.org/2000/svg">
<circle cx="30" cy="30" r="30" fill="#1DA1F2"/>
<path d="M27.3333 20.6667L30 18M24.6667 35.3333L35.3333 24.6667M30 42L32.6667 39.3333M36 39.3333C36.8841 39.3333 37.7319 38.9821 38.357 38.357C38.9821 37.7319 39.3333 36.8841 39.3333 36C39.3333 35.1159 38.9821 34.2681 38.357 33.643C37.7319 33.0179 36.8841 32.6667 36 32.6667C35.1159 32.6667 34.2681 33.0179 33.643 33.643C33.0179 34.2681 32.6667 35.1159 32.6667 36C32.6667 36.8841 33.0179 37.7319 33.643 38.357C34.2681 38.9821 35.1159 39.3333 36 39.3333ZM24 27.3333C24.8841 27.3333 25.7319 26.9821 26.357 26.357C26.9821 25.7319 27.3333 24.8841 27.3333 24C27.3333 23.1159 26.9821 22.2681 26.357 21.643C25.7319 21.0179 24.8841 20.6667 24 20.6667C23.1159 20.6667 22.2681 21.0179 21.643 21.643C21.0179 22.2681 20.6667 23.1159 20.6667 24C20.6667 24.8841 21.0179 25.7319 21.643 26.357C22.2681 26.9821 23.1159 27.3333 24 27.3333ZM21.3333 42C22.2174 42 23.0652 41.6488 23.6904 41.0237C24.3155 40.3986 24.6667 39.5507 24.6667 38.6667C24.6667 37.7826 24.3155 36.9348 23.6904 36.3096C23.0652 35.6845 22.2174 35.3333 21.3333 35.3333C20.4493 35.3333 19.6014 35.6845 18.9763 36.3096C18.3512 36.9348 18 37.7826 18 38.6667C18 39.5507 18.3512 40.3986 18.9763 41.0237C19.6014 41.6488 20.4493 42 21.3333 42ZM38.6667 24.6667C39.5507 24.6667 40.3986 24.3155 41.0237 23.6904C41.6488 23.0652 42 22.2174 42 21.3333C42 20.4493 41.6488 19.6014 41.0237 18.9763C40.3986 18.3512 39.5507 18 38.6667 18C37.7826 18 36.9348 18.3512 36.3096 18.9763C35.6845 19.6014 35.3333 20.4493 35.3333 21.3333C35.3333 22.2174 35.6845 23.0652 36.3096 23.6904C36.9348 24.3155 37.7826 24.6667 38.6667 24.6667Z" stroke="white" stroke-width="2" stroke-linecap="round" stroke-linejoin="round"/>
</svg>
