<svg width="41" height="40" viewBox="0 0 41 40" fill="none" xmlns="http://www.w3.org/2000/svg">
<circle cx="20.6665" cy="20" r="20" fill="#11A61F"/>
<mask id="mask0_529_1956" style="mask-type:alpha" maskUnits="userSpaceOnUse" x="8" y="7" width="25" height="24">
<rect x="8.6665" y="7" width="24" height="24" fill="#D9D9D9"/>
</mask>
<g mask="url(#mask0_529_1956)">
<path d="M19.9165 29C19.3665 29 18.8123 28.9375 18.254 28.8125C17.6957 28.6875 17.1248 28.5083 16.5415 28.275C16.7415 26.2583 17.3248 24.375 18.2915 22.625C19.2582 20.875 20.4998 19.3333 22.0165 18C20.1832 18.9333 18.5957 20.1667 17.254 21.7C15.9123 23.2333 14.9748 24.9833 14.4415 26.95C14.3748 26.9 14.3123 26.8458 14.254 26.7875L14.0665 26.6C13.2832 25.8167 12.6873 24.9417 12.279 23.975C11.8707 23.0083 11.6665 22 11.6665 20.95C11.6665 19.8167 11.8915 18.7333 12.3415 17.7C12.7915 16.6667 13.4165 15.75 14.2165 14.95C15.5665 13.6 17.3165 12.7208 19.4665 12.3125C21.6165 11.9042 24.6332 11.8667 28.5165 12.2C28.8165 16.1833 28.7665 19.2208 28.3665 21.3125C27.9665 23.4042 27.0998 25.1167 25.7665 26.45C24.9498 27.2667 24.0373 27.8958 23.029 28.3375C22.0207 28.7792 20.9832 29 19.9165 29Z" fill="white"/>
</g>
</svg>
