<svg width="25" height="24" viewBox="0 0 25 24" fill="none" xmlns="http://www.w3.org/2000/svg">
<mask id="mask0_544_408" style="mask-type:alpha" maskUnits="userSpaceOnUse" x="0" y="0" width="25" height="24">
<rect x="0.333252" width="24" height="24" fill="#D9D9D9"/>
</mask>
<g mask="url(#mask0_544_408)">
<path d="M11.5833 22C11.0333 22 10.4791 21.9375 9.92075 21.8125C9.36242 21.6875 8.79159 21.5083 8.20825 21.275C8.40825 19.2583 8.99159 17.375 9.95825 15.625C10.9249 13.875 12.1666 12.3333 13.6833 11C11.8499 11.9333 10.2624 13.1667 8.92075 14.7C7.57909 16.2333 6.64159 17.9833 6.10825 19.95C6.04159 19.9 5.97909 19.8458 5.92075 19.7875L5.73325 19.6C4.94992 18.8167 4.35409 17.9417 3.94575 16.975C3.53742 16.0083 3.33325 15 3.33325 13.95C3.33325 12.8167 3.55825 11.7333 4.00825 10.7C4.45825 9.66667 5.08325 8.75 5.88325 7.95C7.23325 6.6 8.98325 5.72083 11.1333 5.3125C13.2833 4.90417 16.2999 4.86667 20.1833 5.2C20.4833 9.18333 20.4333 12.2208 20.0333 14.3125C19.6333 16.4042 18.7666 18.1167 17.4333 19.45C16.6166 20.2667 15.7041 20.8958 14.6958 21.3375C13.6874 21.7792 12.6499 22 11.5833 22Z" fill="#A1A3A4"/>
</g>
</svg>
