<svg width="41" height="40" viewBox="0 0 41 40" fill="none" xmlns="http://www.w3.org/2000/svg">
<circle cx="20.3333" cy="20" r="20" fill="#1DA1F2"/>
<path d="M9.83317 16.5C9.50262 16.5 9.22573 16.388 9.0025 16.164C8.7785 15.9408 8.6665 15.6639 8.6665 15.3333C8.6665 15.0028 8.7785 14.7255 9.0025 14.5015C9.22573 14.2783 9.50262 14.1667 9.83317 14.1667H13.3332C13.6637 14.1667 13.941 14.2783 14.165 14.5015C14.3882 14.7255 14.4998 15.0028 14.4998 15.3333C14.4998 15.6639 14.3882 15.9408 14.165 16.164C13.941 16.388 13.6637 16.5 13.3332 16.5H9.83317ZM9.83317 22.3333C9.50262 22.3333 9.22573 22.2213 9.0025 21.9973C8.7785 21.7741 8.6665 21.4972 8.6665 21.1667C8.6665 20.8361 8.7785 20.5588 9.0025 20.3348C9.22573 20.1116 9.50262 20 9.83317 20H13.3332C13.6637 20 13.941 20.1116 14.165 20.3348C14.3882 20.5588 14.4998 20.8361 14.4998 21.1667C14.4998 21.4972 14.3882 21.7741 14.165 21.9973C13.941 22.2213 13.6637 22.3333 13.3332 22.3333H9.83317ZM29.5498 27.35L25.8748 23.675C25.4082 24.0056 24.8979 24.2533 24.3442 24.4182C23.7896 24.5838 23.2304 24.6667 22.6665 24.6667C21.0526 24.6667 19.6771 24.0977 18.54 22.9598C17.4021 21.8227 16.8332 20.4472 16.8332 18.8333C16.8332 17.2194 17.4021 15.8436 18.54 14.7057C19.6771 13.5686 21.0526 13 22.6665 13C24.2804 13 25.6563 13.5686 26.7942 14.7057C27.9313 15.8436 28.4998 17.2194 28.4998 18.8333C28.4998 19.3972 28.4174 19.9564 28.2525 20.511C28.0868 21.0648 27.8387 21.575 27.5082 22.0417L31.1832 25.7167C31.3971 25.9306 31.504 26.2028 31.504 26.5333C31.504 26.8639 31.3971 27.1361 31.1832 27.35C30.9693 27.5639 30.6971 27.6708 30.3665 27.6708C30.0359 27.6708 29.7637 27.5639 29.5498 27.35ZM22.6665 22.3333C23.6387 22.3333 24.4651 21.9931 25.1457 21.3125C25.8262 20.6319 26.1665 19.8056 26.1665 18.8333C26.1665 17.8611 25.8262 17.0347 25.1457 16.3542C24.4651 15.6736 23.6387 15.3333 22.6665 15.3333C21.6943 15.3333 20.8679 15.6736 20.1873 16.3542C19.5068 17.0347 19.1665 17.8611 19.1665 18.8333C19.1665 19.8056 19.5068 20.6319 20.1873 21.3125C20.8679 21.9931 21.6943 22.3333 22.6665 22.3333ZM9.83317 28.1667C9.50262 28.1667 9.22573 28.0547 9.0025 27.8307C8.7785 27.6074 8.6665 27.3306 8.6665 27C8.6665 26.6694 8.7785 26.3926 9.0025 26.1693C9.22573 25.9453 9.50262 25.8333 9.83317 25.8333H19.1665C19.4971 25.8333 19.7743 25.9453 19.9983 26.1693C20.2216 26.3926 20.3332 26.6694 20.3332 27C20.3332 27.3306 20.2216 27.6074 19.9983 27.8307C19.7743 28.0547 19.4971 28.1667 19.1665 28.1667H9.83317Z" fill="white"/>
</svg>
