<svg width="40" height="40" viewBox="0 0 40 40" fill="none" xmlns="http://www.w3.org/2000/svg">
<circle cx="20" cy="20" r="20" fill="#1DA1F2"/>
<path d="M13.0001 30.5C12.3584 30.5 11.8093 30.2717 11.3527 29.8152C10.8954 29.3578 10.6667 28.8083 10.6667 28.1667V17.6667C10.6667 17.2972 10.7496 16.9472 10.9152 16.6167C11.0801 16.2861 11.3084 16.0139 11.6001 15.8L18.6001 10.55C18.814 10.3945 19.0376 10.2778 19.2709 10.2C19.5042 10.1222 19.7473 10.0833 20.0001 10.0833C20.2529 10.0833 20.4959 10.1222 20.7292 10.2C20.9626 10.2778 21.1862 10.3945 21.4001 10.55L28.4001 15.8C28.6917 16.0139 28.9204 16.2861 29.0861 16.6167C29.251 16.9472 29.3334 17.2972 29.3334 17.6667V28.1667C29.3334 28.8083 29.1051 29.3578 28.6486 29.8152C28.1912 30.2717 27.6417 30.5 27.0001 30.5H22.3334V22.3333H17.6667V30.5H13.0001Z" fill="white"/>
</svg>
