<svg width="41" height="40" viewBox="0 0 41 40" fill="none" xmlns="http://www.w3.org/2000/svg">
<circle cx="20.6667" cy="20" r="20" fill="#1DA1F2"/>
<path d="M28.6667 19C28.6667 16.8783 27.8239 14.8434 26.3236 13.3431C24.8233 11.8429 22.7885 11 20.6667 11C18.545 11 16.5102 11.8429 15.0099 13.3431C13.5096 14.8434 12.6667 16.8783 12.6667 19" stroke="white" stroke-width="1.5" stroke-linecap="round" stroke-linejoin="round"/>
<path d="M28.6667 26V26.5C28.6667 27.0304 28.456 27.5391 28.081 27.9142C27.7059 28.2893 27.1972 28.5 26.6667 28.5H23.1667M10.6667 23.438V21.562C10.6668 21.116 10.816 20.6828 11.0905 20.3313C11.365 19.9798 11.7491 19.7301 12.1817 19.622L13.9217 19.186C14.0102 19.164 14.1024 19.1624 14.1916 19.1813C14.2807 19.2003 14.3643 19.2393 14.4361 19.2954C14.5079 19.3515 14.566 19.4232 14.606 19.5051C14.6459 19.587 14.6667 19.6769 14.6667 19.768V25.231C14.6669 25.3223 14.6462 25.4124 14.6063 25.4946C14.5663 25.5767 14.5082 25.6486 14.4362 25.7048C14.3643 25.761 14.2804 25.8001 14.1911 25.819C14.1018 25.8379 14.0093 25.8362 13.9207 25.814L12.1807 25.379C11.7483 25.2707 11.3644 25.0209 11.0901 24.6694C10.8158 24.3179 10.6668 23.8849 10.6667 23.439V23.438ZM30.6667 23.438V21.562C30.6667 21.116 30.5175 20.6828 30.243 20.3313C29.9685 19.9798 29.5844 19.7301 29.1517 19.622L27.4117 19.186C27.3233 19.164 27.2311 19.1624 27.1419 19.1813C27.0528 19.2003 26.9692 19.2393 26.8974 19.2954C26.8256 19.3515 26.7675 19.4232 26.7275 19.5051C26.6876 19.587 26.6668 19.6769 26.6667 19.768V25.231C26.6666 25.3222 26.6873 25.4122 26.7272 25.4942C26.7671 25.5763 26.8252 25.6481 26.897 25.7043C26.9688 25.7605 27.0525 25.7996 27.1417 25.8186C27.2309 25.8376 27.3233 25.836 27.4117 25.814L29.1517 25.379C29.5844 25.2708 29.9685 25.0212 30.243 24.6697C30.5175 24.3182 30.6667 23.885 30.6667 23.439V23.438Z" stroke="white" stroke-width="1.5"/>
<path d="M22.1667 30H19.1667C18.7689 30 18.3874 29.842 18.1061 29.5607C17.8248 29.2794 17.6667 28.8978 17.6667 28.5C17.6667 28.1022 17.8248 27.7206 18.1061 27.4393C18.3874 27.158 18.7689 27 19.1667 27H22.1667C22.5646 27 22.9461 27.158 23.2274 27.4393C23.5087 27.7206 23.6667 28.1022 23.6667 28.5C23.6667 28.8978 23.5087 29.2794 23.2274 29.5607C22.9461 29.842 22.5646 30 22.1667 30Z" stroke="white" stroke-width="1.5"/>
</svg>
