<svg width="24" height="24" viewBox="0 0 24 24" fill="none" xmlns="http://www.w3.org/2000/svg">
<path d="M12 2.4375C10.1087 2.4375 8.25991 2.99833 6.68736 4.04907C5.11482 5.09981 3.88917 6.59327 3.16541 8.34059C2.44164 10.0879 2.25227 12.0106 2.62125 13.8656C2.99022 15.7205 3.90096 17.4244 5.2383 18.7617C6.57564 20.099 8.27951 21.0098 10.1345 21.3788C11.9894 21.7477 13.9121 21.5584 15.6594 20.8346C17.4067 20.1108 18.9002 18.8852 19.9509 17.3126C21.0017 15.7401 21.5625 13.8913 21.5625 12C21.5595 9.46478 20.5511 7.03425 18.7584 5.24158C16.9658 3.44891 14.5352 2.44048 12 2.4375ZM12 20.4375C10.3312 20.4375 8.69992 19.9426 7.31238 19.0155C5.92484 18.0884 4.84338 16.7706 4.20477 15.2289C3.56616 13.6871 3.39907 11.9906 3.72463 10.3539C4.05019 8.71721 4.85379 7.21379 6.03379 6.03379C7.2138 4.85378 8.71722 4.05019 10.3539 3.72462C11.9906 3.39906 13.6871 3.56615 15.2289 4.20477C16.7706 4.84338 18.0884 5.92484 19.0155 7.31238C19.9427 8.69992 20.4375 10.3312 20.4375 12C20.435 14.237 19.5453 16.3817 17.9635 17.9635C16.3817 19.5453 14.237 20.435 12 20.4375ZM12 6.1875C10.8504 6.1875 9.72661 6.5284 8.77075 7.16708C7.81489 7.80577 7.06989 8.71356 6.62995 9.77565C6.19002 10.8377 6.07491 12.0064 6.29919 13.134C6.52347 14.2615 7.07705 15.2972 7.88995 16.1101C8.70284 16.923 9.73853 17.4765 10.866 17.7008C11.9936 17.9251 13.1623 17.81 14.2244 17.3701C15.2864 16.9301 16.1942 16.1851 16.8329 15.2293C17.4716 14.2734 17.8125 13.1496 17.8125 12C17.8108 10.459 17.1978 8.98154 16.1081 7.89186C15.0185 6.80218 13.541 6.18924 12 6.1875ZM12 16.6875C11.0729 16.6875 10.1666 16.4126 9.39577 15.8975C8.62491 15.3824 8.0241 14.6504 7.66932 13.7938C7.31453 12.9373 7.22171 11.9948 7.40257 11.0855C7.58344 10.1762 8.02988 9.341 8.68544 8.68544C9.341 8.02988 10.1762 7.58344 11.0855 7.40257C11.9948 7.2217 12.9373 7.31453 13.7938 7.66931C14.6504 8.0241 15.3824 8.62491 15.8975 9.39576C16.4126 10.1666 16.6875 11.0729 16.6875 12C16.686 13.2427 16.1917 14.4342 15.3129 15.3129C14.4342 16.1917 13.2427 16.686 12 16.6875Z" fill="#7F8183"/>
</svg>
