<svg width="20" height="20" viewBox="0 0 20 20" fill="none" xmlns="http://www.w3.org/2000/svg">
<path d="M15.526 3C15.9238 3 16.3054 3.15804 16.5867 3.43934C16.868 3.72064 17.026 4.10218 17.026 4.5V5.894C17.0262 6.35465 16.8991 6.8064 16.6588 7.19939C16.4184 7.59237 16.0742 7.91131 15.664 8.121L11.474 10.261C12.2109 10.5949 12.8113 11.1712 13.175 11.8938C13.5388 12.6165 13.644 13.442 13.4732 14.2328C13.3024 15.0236 12.8659 15.7321 12.2363 16.2402C11.6067 16.7483 10.8221 17.0254 10.013 17.0254C9.20394 17.0254 8.4193 16.7483 7.78971 16.2402C7.16013 15.7321 6.72359 15.0236 6.55279 14.2328C6.38198 13.442 6.48722 12.6165 6.85098 11.8938C7.21474 11.1712 7.81506 10.5949 8.552 10.261L4.363 8.12C3.98094 7.92488 3.65551 7.63473 3.41803 7.27746C3.18055 6.92018 3.039 6.50781 3.007 6.08L3 5.894V4.5C3 4.10218 3.15804 3.72064 3.43934 3.43934C3.72064 3.15804 4.10218 3 4.5 3H15.526ZM10.013 10.945C9.67957 10.945 9.34941 11.0107 9.04137 11.1383C8.73332 11.2659 8.45342 11.4529 8.21766 11.6887C7.98189 11.9244 7.79487 12.2043 7.66727 12.5124C7.53967 12.8204 7.474 13.1506 7.474 13.484C7.474 13.8174 7.53967 14.1476 7.66727 14.4556C7.79487 14.7637 7.98189 15.0436 8.21766 15.2793C8.45342 15.5151 8.73332 15.7021 9.04137 15.8297C9.34941 15.9573 9.67957 16.023 10.013 16.023C10.6864 16.023 11.3322 15.7555 11.8083 15.2793C12.2845 14.8032 12.552 14.1574 12.552 13.484C12.552 12.8106 12.2845 12.1648 11.8083 11.6887C11.3322 11.2125 10.6864 10.945 10.013 10.945ZM12.616 4H7.406V8.553L9.786 9.769C9.85644 9.80499 9.9344 9.82375 10.0135 9.82375C10.0926 9.82375 10.1706 9.80499 10.241 9.769L12.616 8.555V4Z" fill="#FFDD55"/>
</svg>
