<svg width="32" height="32" viewBox="0 0 32 32" fill="none" xmlns="http://www.w3.org/2000/svg">
<path d="M31.9579 21.085C31.2734 19.115 30.5869 17.1425 29.9024 15.1685L29.2794 13.3835C28.6297 13.383 27.9945 13.1912 27.4532 12.832C26.9118 12.4727 26.4883 11.962 26.2354 11.3635C22.2849 12.737 18.3364 14.1115 14.3859 15.483C12.0424 16.297 9.69691 17.1135 7.35091 17.93C7.51643 18.5304 7.50908 19.1654 7.32969 19.7618C7.15031 20.3583 6.80619 20.892 6.33691 21.3015C6.92591 22.9985 7.51441 24.695 8.10541 26.392C8.41991 27.298 8.73391 28.2005 9.04741 29.107C9.50939 29.1285 9.96171 29.2467 10.3751 29.4541C10.7885 29.6614 11.1538 29.9531 11.4474 30.3105C15.5059 28.8995 19.5619 27.49 23.6199 26.0785C25.9774 25.258 28.3409 24.438 30.7044 23.6175C30.7132 23.1288 30.8302 22.6482 31.0469 22.2101C31.2637 21.7721 31.5748 21.3875 31.9579 21.084" fill="#BF8149"/>
<path d="M31.4351 20.8355C30.7486 18.8635 30.0611 16.8905 29.3761 14.9145L28.7546 13.1305C28.1053 13.1302 27.4706 12.9384 26.9299 12.579C26.3891 12.2197 25.9664 11.7089 25.7146 11.1105C21.7641 12.484 17.8136 13.8575 13.8631 15.23C11.5184 16.0462 9.17345 16.8614 6.82808 17.6755C6.99397 18.2767 6.98631 18.9125 6.80598 19.5095C6.62566 20.1065 6.28003 20.6402 5.80908 21.049C6.40008 22.746 6.99208 24.4445 7.58058 26.1415C7.89458 27.044 8.20908 27.948 8.52358 28.8545C8.98534 28.8764 9.43738 28.9948 9.85058 29.2021C10.2638 29.4094 10.629 29.701 10.9226 30.058C14.9806 28.649 19.0391 27.237 23.0931 25.828C25.4566 25.0055 27.8181 24.1855 30.1796 23.3625C30.189 22.8745 30.3065 22.3946 30.5236 21.9574C30.7407 21.5202 31.052 21.1365 31.4351 20.834" fill="#F2A755"/>
<path d="M6.68309 19.833C6.49037 20.3015 6.19092 20.7186 5.80859 21.051L8.52359 28.856C8.98535 28.8779 9.4374 28.9963 9.85059 29.2036C10.2638 29.4109 10.629 29.7025 10.9226 30.0595L30.1796 23.364C30.1849 23.0765 30.23 22.7911 30.3136 22.516C27.3191 23.496 14.4171 27.646 6.68309 19.833Z" fill="#D89450"/>
<path d="M27.8942 22.2985L12.1902 27.758C11.9587 27.838 11.7427 27.772 11.6852 27.602L8.85817 19.4675C8.84497 19.4281 8.84108 19.3861 8.8468 19.3449C8.85253 19.3037 8.86771 19.2644 8.89117 19.23L8.90217 19.172L8.96217 19.148C9.00717 19.102 9.07617 19.062 9.15867 19.034L24.8582 13.575C25.0897 13.495 25.3092 13.561 25.3652 13.728L28.1937 21.863C28.2537 22.031 28.1237 22.219 27.8942 22.2985ZM12.0017 27.4385C12.0265 27.4359 12.0509 27.4307 12.0747 27.423L27.7787 21.963C27.802 21.9555 27.8242 21.9449 27.8447 21.9315L25.0517 13.8965C25.0265 13.8976 25.0017 13.9027 24.9782 13.9115L9.27617 19.3715C9.25581 19.3767 9.23628 19.3848 9.21817 19.3955L9.21117 19.4135L12.0017 27.4385Z" fill="#BE1E2D"/>
<path d="M14.4743 21.01L14.2558 20.749L13.2778 21.0885L13.2698 21.4375C13.2678 21.5715 13.2578 21.665 13.2398 21.719C13.2238 21.771 13.1778 21.811 13.1063 21.8345C13.0767 21.8456 13.0451 21.8506 13.0134 21.8491C12.9818 21.8476 12.9508 21.8398 12.9223 21.826C12.8652 21.8008 12.8202 21.7543 12.7968 21.6965C12.7871 21.6619 12.7818 21.6263 12.7808 21.5905C12.7776 21.536 12.7783 21.4814 12.7828 21.427L12.8548 19.6545C12.8588 19.604 12.8608 19.5425 12.8608 19.4705C12.8652 19.4095 12.8739 19.3488 12.8868 19.289C12.9 19.2368 12.9262 19.1889 12.9628 19.1495C13.0045 19.1045 13.0575 19.0715 13.1163 19.054C13.1694 19.0321 13.2273 19.0244 13.2843 19.0314C13.3413 19.0384 13.3956 19.0599 13.4418 19.094C13.4858 19.122 13.5238 19.16 13.5598 19.1995C13.5958 19.2395 13.6373 19.292 13.6953 19.3595L14.8608 20.6885C14.9488 20.7905 15.0028 20.866 15.0248 20.9225C15.034 20.9517 15.0371 20.9824 15.034 21.0128C15.031 21.0433 15.0217 21.0728 15.0068 21.0995C14.9928 21.1286 14.973 21.1546 14.9487 21.1759C14.9244 21.1972 14.896 21.2134 14.8653 21.2235C14.8309 21.2368 14.7941 21.2422 14.7573 21.2395C14.7269 21.235 14.6977 21.2241 14.6718 21.2075C14.6348 21.1834 14.6017 21.1537 14.5738 21.1195C14.5387 21.0848 14.5055 21.0482 14.4743 21.01ZM13.2788 20.679L13.9963 20.4315L13.2878 19.5655L13.2788 20.679ZM14.9088 18.4775L15.5393 18.2585C15.7068 18.2005 15.8568 18.1665 15.9828 18.1565C16.1103 18.1465 16.2363 18.167 16.3643 18.2185C16.6873 18.3445 16.9248 18.6255 17.0788 19.061C17.1288 19.205 17.1608 19.3425 17.1743 19.47C17.1927 19.5898 17.192 19.7118 17.1723 19.8315C17.1399 20.0358 17.0434 20.2245 16.8968 20.3705C16.8328 20.4305 16.7593 20.486 16.6778 20.528C16.5849 20.5771 16.4885 20.6192 16.3893 20.654L15.7553 20.875C15.6643 20.9035 15.5958 20.915 15.5393 20.9035C15.4881 20.8931 15.443 20.8629 15.4138 20.8195C15.3753 20.765 15.3463 20.7043 15.3283 20.64L14.7153 18.8795C14.6793 18.774 14.6753 18.69 14.7073 18.628C14.7353 18.5635 14.8028 18.5155 14.9088 18.4775ZM15.2318 18.7975L15.7988 20.426L16.1663 20.2985C16.2483 20.2705 16.3058 20.2445 16.3538 20.225C16.3958 20.205 16.4438 20.179 16.4858 20.141C16.5267 20.1092 16.5613 20.07 16.5878 20.0255C16.7018 19.8315 16.7018 19.564 16.5853 19.229C16.5018 18.991 16.4038 18.8275 16.2918 18.736C16.1803 18.642 16.0643 18.5985 15.9488 18.6005C15.8136 18.6108 15.6806 18.6397 15.5533 18.6865L15.2318 18.7975ZM18.6048 19.476L17.6903 18.0805L18.2673 19.737C18.2973 19.827 18.3028 19.905 18.2773 19.9645C18.2648 19.9939 18.246 20.0202 18.2222 20.0417C18.1985 20.0631 18.1704 20.0791 18.1398 20.0885C18.1099 20.0998 18.0779 20.1047 18.046 20.1028C18.014 20.101 17.9828 20.0926 17.9543 20.078C17.8963 20.0465 17.8523 19.9825 17.8223 19.8925L17.1618 17.994C17.1218 17.888 17.1278 17.8085 17.1698 17.7525C17.2218 17.6903 17.2908 17.6446 17.3683 17.621L17.5213 17.569C17.5869 17.5431 17.6564 17.5282 17.7268 17.525C17.7494 17.526 17.7716 17.5315 17.7921 17.5411C17.8127 17.5507 17.8311 17.5642 17.8463 17.581C17.8843 17.619 17.9303 17.6785 17.9858 17.7665L18.7943 18.9605L18.6843 17.525C18.6743 17.4215 18.6728 17.3435 18.6783 17.2935C18.6838 17.2435 18.7043 17.2035 18.7383 17.174C18.7738 17.144 18.8378 17.112 18.9278 17.08L19.0798 17.028C19.1718 16.9965 19.2513 16.9885 19.3173 17.0065C19.3833 17.024 19.4368 17.086 19.4733 17.19L20.1338 19.088C20.1658 19.178 20.1678 19.256 20.1443 19.316C20.1312 19.3454 20.1119 19.3716 20.0877 19.3929C20.0636 19.4143 20.0351 19.4301 20.0043 19.4395C19.9752 19.4516 19.9436 19.4567 19.9122 19.4547C19.8807 19.4526 19.8501 19.4433 19.8228 19.4275C19.7633 19.396 19.7213 19.3335 19.6873 19.244L19.1128 17.5875L19.2608 19.2505C19.2688 19.358 19.2723 19.438 19.2723 19.49C19.2723 19.542 19.2588 19.592 19.2303 19.646C19.213 19.6751 19.1901 19.7005 19.1629 19.7207C19.1357 19.7409 19.1047 19.7554 19.0718 19.7635C19.0229 19.7841 18.9689 19.7897 18.9168 19.7795C18.8701 19.7696 18.8268 19.7475 18.7913 19.7155C18.7564 19.6827 18.7249 19.6465 18.6973 19.6075C18.6663 19.5635 18.6363 19.522 18.6048 19.476ZM20.6448 18.885L19.9883 16.997C19.9563 16.8975 19.9503 16.8175 19.9778 16.7535C19.9912 16.7212 20.0116 16.6923 20.0375 16.6688C20.0635 16.6454 20.0943 16.628 20.1278 16.618C20.1603 16.6054 20.1951 16.6 20.2299 16.6021C20.2646 16.6041 20.2985 16.6137 20.3293 16.63C20.3903 16.6635 20.4393 16.7275 20.4748 16.828L21.1313 18.718C21.1653 18.8155 21.1693 18.8975 21.1398 18.9635C21.126 18.9959 21.1052 19.0248 21.079 19.0482C21.0527 19.0717 21.0216 19.089 20.9878 19.099C20.956 19.1107 20.9221 19.1155 20.8883 19.1131C20.8545 19.1107 20.8216 19.1011 20.7918 19.085C20.7283 19.051 20.6803 18.985 20.6448 18.885ZM22.6298 16.246L22.0973 16.4275L22.7043 18.172C22.7378 18.2715 22.7438 18.3535 22.7143 18.4175C22.7014 18.4489 22.6816 18.4771 22.6565 18.4999C22.6313 18.5228 22.6014 18.5397 22.5688 18.5495C22.5369 18.5631 22.5023 18.5691 22.4676 18.567C22.433 18.5649 22.3994 18.5548 22.3693 18.5375C22.3033 18.506 22.2573 18.44 22.2193 18.3395L21.6143 16.597L21.0853 16.7785C21.0013 16.8105 20.9333 16.8145 20.8798 16.7905C20.8537 16.7788 20.8304 16.7617 20.8114 16.7404C20.7925 16.719 20.7783 16.6938 20.7698 16.6665C20.7587 16.6392 20.754 16.6097 20.7561 16.5803C20.7582 16.551 20.767 16.5224 20.7818 16.497C20.8118 16.445 20.8653 16.407 20.9453 16.3795L22.4883 15.8425C22.5743 15.8125 22.6423 15.811 22.6958 15.8345C22.7228 15.8453 22.7471 15.862 22.7668 15.8833C22.7865 15.9047 22.8012 15.9302 22.8098 15.958C22.8196 15.985 22.8235 16.0138 22.8212 16.0425C22.8188 16.0711 22.8104 16.0989 22.7963 16.124C22.7673 16.1765 22.7098 16.2165 22.6298 16.246ZM16.3138 22.45C16.5613 22.364 16.7953 22.34 17.0068 22.38C17.2228 22.42 17.4063 22.5155 17.5593 22.6675C17.7193 22.823 17.8393 23.0265 17.9268 23.276C17.9908 23.462 18.0223 23.6395 18.0263 23.809C18.0313 23.9713 18.0006 24.1328 17.9363 24.282C17.8743 24.4298 17.7786 24.5612 17.6568 24.6655C17.5328 24.7755 17.3753 24.861 17.1838 24.9265C17.0126 24.9917 16.8298 25.021 16.6468 25.0125C16.4868 25.0046 16.3306 24.9609 16.1898 24.8845C16.0468 24.806 15.9223 24.6977 15.8248 24.567C15.7177 24.4214 15.6329 24.2606 15.5733 24.09C15.5132 23.9181 15.4814 23.7376 15.4793 23.5555C15.4773 23.3815 15.5093 23.226 15.5713 23.0825C15.6333 22.941 15.7288 22.813 15.8528 22.707C15.9768 22.602 16.1303 22.514 16.3138 22.45ZM17.4338 23.4465C17.3688 23.2705 17.2903 23.127 17.1883 23.0175C17.0968 22.9159 16.9773 22.8437 16.8448 22.81C16.713 22.7815 16.5758 22.7912 16.4493 22.838C16.3553 22.8673 16.2694 22.9179 16.1983 22.986C16.1283 23.0515 16.0763 23.1295 16.0408 23.2195C16.0031 23.3209 15.9868 23.429 15.9928 23.537C15.9968 23.6585 16.0228 23.7865 16.0688 23.9205C16.1105 24.0459 16.171 24.1643 16.2483 24.2715C16.3223 24.3695 16.4018 24.4455 16.4898 24.495C16.5758 24.547 16.6693 24.575 16.7613 24.585C16.8735 24.5922 16.9859 24.5733 17.0895 24.5296C17.1931 24.486 17.2851 24.4188 17.3583 24.3335C17.4418 24.234 17.4898 24.11 17.5078 23.958C17.5238 23.8075 17.4978 23.634 17.4338 23.4465ZM18.6448 21.9675L20.0728 23.0555L19.5763 21.63C19.5423 21.536 19.5413 21.458 19.5623 21.4005C19.575 21.3707 19.5938 21.3439 19.6175 21.3219C19.6411 21.2998 19.6692 21.283 19.6998 21.2725C19.7308 21.2607 19.764 21.2559 19.797 21.2582C19.8301 21.2605 19.8623 21.27 19.8913 21.286C19.9473 21.318 19.9913 21.38 20.0233 21.474L20.6798 23.3585C20.7498 23.57 20.6998 23.7055 20.5283 23.7655C20.4884 23.7796 20.4466 23.7877 20.4043 23.7895C20.3603 23.7875 20.3248 23.7795 20.2848 23.7635C20.2448 23.7475 20.2048 23.7235 20.1653 23.6975C20.1273 23.6695 20.0913 23.642 20.0493 23.6115L18.6543 22.532L19.1393 23.9375C19.1713 24.0315 19.1733 24.107 19.1498 24.167C19.1369 24.197 19.1178 24.2239 19.0936 24.2459C19.0695 24.2679 19.0409 24.2845 19.0098 24.2945C18.9791 24.3067 18.946 24.3118 18.913 24.3095C18.88 24.3072 18.848 24.2974 18.8193 24.281C18.7628 24.247 18.7188 24.187 18.6863 24.0955L18.0418 22.245C18.019 22.1827 18.0061 22.1173 18.0038 22.051C18.0081 21.9939 18.0297 21.9395 18.0658 21.895C18.1015 21.8483 18.1499 21.813 18.2053 21.7935C18.2439 21.781 18.2843 21.7749 18.3248 21.7755C18.3597 21.7794 18.3936 21.7895 18.4248 21.8055C18.4563 21.8235 18.4928 21.8435 18.5303 21.8735C18.5683 21.9055 18.6063 21.933 18.6448 21.9675ZM22.1848 20.8795L21.0908 21.2585L21.2943 21.8475L22.3043 21.4965C22.3798 21.4705 22.4398 21.4685 22.4898 21.488C22.5138 21.4984 22.5352 21.5141 22.5524 21.5338C22.5696 21.5535 22.5822 21.5768 22.5893 21.602C22.5985 21.6265 22.6025 21.6527 22.6012 21.6788C22.5998 21.705 22.593 21.7306 22.5813 21.754C22.5573 21.8 22.5093 21.836 22.4318 21.864L21.4218 22.213L21.6593 22.896L22.7893 22.5025C22.8693 22.4765 22.9313 22.4725 22.9813 22.4945C23.0338 22.5165 23.0713 22.5565 23.0893 22.616C23.0999 22.6415 23.1046 22.6691 23.1032 22.6967C23.1017 22.7243 23.0941 22.7512 23.0808 22.7755C23.0528 22.8235 23.0033 22.8615 22.9268 22.8875L21.6073 23.347C21.5013 23.3825 21.4158 23.3865 21.3538 23.355C21.2918 23.3245 21.2418 23.2575 21.2038 23.1535L20.5773 21.349C20.5552 21.2919 20.5462 21.2305 20.5508 21.1695C20.5542 21.1194 20.5763 21.0724 20.6128 21.038C20.6587 20.9965 20.7131 20.9658 20.7723 20.948L22.0533 20.5025C22.1298 20.4745 22.1958 20.4725 22.2458 20.4945C22.2703 20.5053 22.2922 20.5212 22.3102 20.5411C22.3281 20.561 22.3416 20.5845 22.3498 20.61C22.3592 20.6352 22.3631 20.6622 22.3614 20.6891C22.3597 20.7159 22.3523 20.7421 22.3398 20.766C22.3143 20.8115 22.2643 20.849 22.1848 20.8795Z" fill="#243438"/>
<path d="M10.1157 18.7035L10.4927 18.5715L13.4227 26.9545L13.0452 27.086L10.1157 18.7035ZM26.6002 22.56L26.2252 22.69L23.3107 14.3015L23.6802 14.1725L26.6002 22.56Z" fill="#BE1E2D"/>
<path d="M30.6901 9.97951C28.9536 8.02851 27.2151 6.07701 25.4761 4.12401C24.9511 3.53401 24.4241 2.94551 23.9016 2.35651C23.1504 2.66819 22.3239 2.75143 21.5256 2.59579C20.7273 2.44015 19.9927 2.05256 19.4136 1.48151C15.5054 4.96442 11.5964 8.44642 7.68657 11.9275L0.726074 18.129C1.20529 18.7442 1.50109 19.4821 1.57946 20.2579C1.65783 21.0338 1.51558 21.8159 1.16907 22.5145C2.66307 24.195 4.15757 25.872 5.65557 27.5545C6.45307 28.451 7.24957 29.345 8.04607 30.2415C8.59029 30.0447 9.16976 29.9643 9.74699 30.0056C10.3242 30.0469 10.8864 30.2088 11.3971 30.481C15.4171 26.9065 19.4271 23.331 23.4421 19.754C25.7801 17.674 28.1176 15.592 30.4521 13.5105C30.2285 12.9412 30.1337 12.3294 30.1745 11.7191C30.2153 11.1088 30.3907 10.515 30.6881 9.98051" fill="#BF8149"/>
<path d="M29.964 9.9385L24.746 4.0795C24.223 3.494 23.698 2.9025 23.171 2.314C22.4205 2.62531 21.5948 2.70834 20.7973 2.5527C19.9998 2.39706 19.2659 2.00966 18.6875 1.439L6.9605 11.884C4.64 13.952 2.3215 16.0185 0 18.0845C0.479574 18.7003 0.775258 19.4392 0.852934 20.2159C0.93061 20.9926 0.787113 21.7754 0.439 22.474C1.935 24.1525 3.433 25.8315 4.9265 27.514C5.724 28.406 6.5215 29.302 7.3195 30.1985C7.86395 30.002 8.44356 29.922 9.02088 29.9636C9.59819 30.0052 10.1603 30.1675 10.671 30.44C14.686 26.865 18.701 23.2875 22.716 19.7125C25.0535 17.6305 27.3915 15.5485 29.726 13.467C29.5025 12.8984 29.4078 12.2874 29.4489 11.6778C29.49 11.0683 29.6657 10.4754 29.9635 9.942" fill="#F2A755"/>
<path d="M26.5752 13.328L11.0352 27.169C10.8077 27.3705 10.5262 27.401 10.3767 27.233L3.2067 19.183C3.173 19.1432 3.14882 19.0963 3.13599 19.0458C3.12317 18.9953 3.12204 18.9425 3.1327 18.8915L3.1167 18.8195L3.1747 18.7635C3.2047 18.69 3.2647 18.6095 3.3462 18.536L18.8862 4.69749C19.1157 4.49499 19.3992 4.46599 19.5457 4.63149L26.7172 12.6815C26.8647 12.848 26.8052 13.1255 26.5772 13.329M10.6657 26.889C10.6937 26.8751 10.7197 26.8576 10.7432 26.837L26.2832 12.996C26.3072 12.9758 26.3281 12.9522 26.3452 12.926L19.2632 4.97349C19.2347 4.98694 19.2086 5.00483 19.1857 5.02649L3.6457 18.8665C3.6172 18.8905 3.6037 18.9085 3.5917 18.924V18.948L10.6667 26.889" fill="#BE1E2D"/>
<path d="M10.4393 18.2765L10.0623 18.0785L9.09426 18.939L9.25176 19.346C9.31376 19.502 9.34776 19.6155 9.35376 19.6855C9.35976 19.7555 9.32576 19.823 9.25376 19.885C9.194 19.9386 9.11546 19.9665 9.03526 19.9625C8.95026 19.9565 8.88226 19.931 8.83176 19.8725C8.80153 19.8388 8.77719 19.8003 8.75976 19.7585C8.73153 19.6957 8.70568 19.6318 8.68226 19.567L7.91726 17.483C7.89626 17.425 7.87026 17.351 7.83626 17.269C7.81045 17.1963 7.79105 17.1215 7.77826 17.0455C7.76846 16.979 7.77533 16.9112 7.79826 16.848C7.82613 16.7761 7.87129 16.7122 7.92976 16.662C7.98167 16.6121 8.04521 16.576 8.11462 16.5568C8.18404 16.5377 8.25713 16.5362 8.32726 16.5525C8.38976 16.566 8.45276 16.59 8.51226 16.62C8.57276 16.6485 8.64826 16.6885 8.74626 16.74L10.7323 17.718C10.8818 17.7915 10.9818 17.8555 11.0318 17.9095C11.0569 17.9383 11.0757 17.972 11.0871 18.0085C11.0985 18.045 11.1021 18.0835 11.0978 18.1215C11.0954 18.1622 11.085 18.202 11.0672 18.2387C11.0493 18.2753 11.0244 18.3081 10.9938 18.335C10.9608 18.367 10.9204 18.3904 10.8763 18.403C10.8386 18.4139 10.7989 18.4161 10.7603 18.4095C10.707 18.398 10.6555 18.3798 10.6068 18.3555C10.5504 18.3303 10.4946 18.304 10.4393 18.2765ZM8.89976 18.466L9.61076 17.835L8.37776 17.1725L8.89976 18.466ZM9.72676 15.135L10.3533 14.576C10.5193 14.4305 10.6728 14.321 10.8143 14.2485C10.9583 14.1745 11.1118 14.1365 11.2833 14.1355C11.7183 14.1265 12.1273 14.338 12.5138 14.77C12.6403 14.9115 12.7443 15.0535 12.8223 15.193C12.9043 15.335 12.9603 15.4745 12.9943 15.614C13.0258 15.7535 13.0343 15.8975 13.0183 16.047C13.0062 16.1582 12.9765 16.2667 12.9303 16.3685C12.8883 16.4685 12.8283 16.568 12.7543 16.658C12.6808 16.748 12.5868 16.8455 12.4808 16.9415L11.8523 17.5C11.7643 17.576 11.6883 17.622 11.6188 17.6355C11.5543 17.6476 11.4876 17.6357 11.4313 17.602C11.3622 17.5536 11.2996 17.4965 11.2453 17.432L9.69426 15.6915C9.60226 15.5875 9.55676 15.492 9.56476 15.404C9.56876 15.317 9.62276 15.227 9.72676 15.135ZM10.2538 15.349L11.6888 16.962L12.0543 16.6365C12.1343 16.5665 12.1918 16.507 12.2338 16.463C12.2758 16.417 12.3158 16.365 12.3458 16.303C12.3795 16.2469 12.4013 16.1844 12.4098 16.1195C12.4478 15.842 12.3198 15.533 12.0243 15.2015C11.8148 14.966 11.6233 14.822 11.4493 14.7705C11.2758 14.7145 11.1198 14.7205 10.9883 14.7785C10.8358 14.854 10.6953 14.9516 10.5713 15.068L10.2538 15.349ZM14.4813 14.52L12.7523 13.346L14.2133 14.985C14.2933 15.075 14.3353 15.161 14.3353 15.2425C14.3353 15.3225 14.3003 15.392 14.2353 15.452C14.2063 15.4797 14.1717 15.5008 14.1338 15.5138C14.0959 15.5268 14.0556 15.5315 14.0158 15.5275C13.9338 15.5195 13.8523 15.4675 13.7723 15.378L12.0998 13.499C12.0078 13.395 11.9718 13.3015 11.9938 13.2175C12.0158 13.132 12.0718 13.05 12.1613 12.969L12.3108 12.836C12.3988 12.7575 12.4728 12.7065 12.5263 12.6865C12.5531 12.676 12.5819 12.6712 12.6107 12.6724C12.6396 12.6736 12.6679 12.6808 12.6938 12.6935C12.7538 12.7185 12.8378 12.7665 12.9433 12.841L14.4483 13.832L13.6358 12.225C13.5738 12.1095 13.5363 12.0205 13.5183 11.9605C13.5003 11.9005 13.5063 11.845 13.5303 11.793C13.5583 11.741 13.6138 11.6755 13.7038 11.5955L13.8538 11.4625C13.9438 11.3805 14.0333 11.333 14.1193 11.323C14.2053 11.311 14.2953 11.356 14.3878 11.4595L16.0618 13.338C16.1418 13.427 16.1793 13.5155 16.1813 13.5965C16.1813 13.6765 16.1453 13.748 16.0793 13.808C16.051 13.8354 16.017 13.8561 15.9797 13.8685C15.9424 13.881 15.9028 13.8849 15.8638 13.88C15.7803 13.872 15.7003 13.821 15.6203 13.7335L14.1593 12.0935L15.1273 13.944C15.1893 14.065 15.2313 14.1555 15.2573 14.2145C15.2816 14.2792 15.2899 14.3489 15.2813 14.4175C15.2753 14.4935 15.2333 14.5635 15.1573 14.629C15.1093 14.6754 15.0491 14.7073 14.9838 14.721C14.9255 14.7316 14.8655 14.7268 14.8098 14.707C14.7525 14.6873 14.6976 14.6611 14.6463 14.629C14.5933 14.594 14.5393 14.5555 14.4813 14.52ZM16.5598 12.856L14.8933 10.9865C14.8098 10.889 14.7658 10.797 14.7638 10.71C14.7645 10.6666 14.7744 10.6239 14.793 10.5846C14.8115 10.5454 14.8382 10.5106 14.8713 10.4825C14.9031 10.4525 14.9408 10.4296 14.9821 10.4151C15.0234 10.4006 15.0672 10.395 15.1108 10.3985C15.1988 10.4075 15.2848 10.4605 15.3743 10.5585L17.0388 12.429C17.1268 12.5255 17.1708 12.6195 17.1668 12.7105C17.1663 12.754 17.1564 12.7968 17.1378 12.8361C17.1191 12.8754 17.0922 12.9102 17.0588 12.938C17.0274 12.9672 16.9902 12.9893 16.9495 13.0029C16.9089 13.0166 16.8659 13.0213 16.8233 13.017C16.7358 13.009 16.6458 12.954 16.5598 12.856ZM17.5798 8.853L17.0548 9.321L18.5918 11.0455C18.6798 11.1455 18.7238 11.237 18.7218 11.326C18.7213 11.3686 18.7116 11.4105 18.6932 11.4489C18.6749 11.4873 18.6485 11.5213 18.6158 11.5485C18.5845 11.5786 18.5471 11.6015 18.5061 11.6157C18.465 11.6299 18.4214 11.6349 18.3783 11.6305C18.2883 11.6235 18.2008 11.5695 18.1108 11.472L16.5758 9.7485L16.0508 10.2135C15.9688 10.2885 15.8933 10.3255 15.8213 10.3245C15.7853 10.3237 15.7499 10.3152 15.7176 10.2995C15.6852 10.2838 15.6566 10.2613 15.6338 10.2335C15.5778 10.1715 15.5538 10.1045 15.5658 10.033C15.5758 9.958 15.6218 9.888 15.6973 9.8175L17.2268 8.457C17.3103 8.382 17.3863 8.345 17.4623 8.347C17.5343 8.348 17.5963 8.377 17.6518 8.438C17.6765 8.46397 17.695 8.49515 17.7061 8.52924C17.7172 8.56333 17.7205 8.59947 17.7158 8.635C17.7058 8.707 17.6618 8.78 17.5798 8.853ZM13.2558 19.055C13.5013 18.8355 13.7608 18.6955 14.0223 18.64C14.2827 18.5817 14.5549 18.6062 14.8008 18.71C15.0583 18.8135 15.2958 18.9895 15.5178 19.237C15.6793 19.4205 15.8033 19.6105 15.8888 19.804C15.9728 19.998 16.0143 20.193 16.0128 20.393C16.0105 20.5941 15.9628 20.792 15.8733 20.972C15.7672 21.1742 15.6237 21.3544 15.4503 21.503C15.2829 21.6584 15.086 21.7786 14.8713 21.8565C14.6733 21.9265 14.4758 21.9505 14.2803 21.93C14.0848 21.9095 13.8933 21.842 13.7073 21.736C13.5124 21.6209 13.3372 21.4754 13.1883 21.305C13.0341 21.1363 12.9098 20.9425 12.8208 20.732C12.7395 20.5457 12.6988 20.3442 12.7013 20.141C12.7053 19.947 12.7548 19.7555 12.8448 19.572C12.9483 19.3755 13.0877 19.2002 13.2558 19.055ZM15.0263 19.668C14.8708 19.494 14.7108 19.3685 14.5393 19.2905C14.3851 19.2156 14.2118 19.1893 14.0423 19.215C13.8757 19.2458 13.7214 19.3233 13.5973 19.4385C13.5046 19.5159 13.4304 19.6132 13.3803 19.7231C13.3302 19.833 13.3054 19.9527 13.3078 20.0735C13.3098 20.195 13.3418 20.325 13.4038 20.4645C13.4678 20.6 13.5598 20.738 13.6773 20.87C13.7973 21.004 13.9208 21.1135 14.0523 21.1915C14.1843 21.2695 14.3138 21.3175 14.4393 21.3355C14.5633 21.3535 14.6848 21.3395 14.7948 21.3075C14.9068 21.2695 15.0123 21.2075 15.1078 21.1215C15.2298 21.0135 15.3173 20.882 15.3653 20.7285C15.4133 20.5765 15.4093 20.407 15.3573 20.2235C15.3038 20.0415 15.1943 19.8535 15.0263 19.666M15.7208 17.38L17.8908 17.953L16.6353 16.542C16.5513 16.45 16.5113 16.3625 16.5073 16.2845C16.5077 16.2438 16.5168 16.2037 16.534 16.1668C16.5512 16.1299 16.576 16.0971 16.6068 16.0705C16.6366 16.0423 16.6722 16.0209 16.7112 16.0079C16.7501 15.9948 16.7914 15.9904 16.8323 15.995C16.9123 16.005 16.9943 16.057 17.0758 16.149L18.7363 18.015C18.9223 18.2225 18.9303 18.404 18.7583 18.556C18.7196 18.5919 18.6751 18.6209 18.6268 18.642C18.5783 18.6609 18.5268 18.6711 18.4748 18.672C18.4213 18.672 18.3648 18.664 18.3063 18.652C18.2473 18.6385 18.1913 18.622 18.1293 18.608L15.9973 18.0295L17.2328 19.4225C17.3148 19.5125 17.3568 19.6 17.3548 19.6825C17.3549 19.7233 17.346 19.7636 17.3287 19.8005C17.3114 19.8374 17.2862 19.87 17.2548 19.896C17.2251 19.9251 17.1892 19.947 17.1497 19.9601C17.1103 19.9731 17.0684 19.9771 17.0273 19.9715C16.9453 19.96 16.8638 19.912 16.7858 19.822L15.1553 17.9915C15.0978 17.931 15.0505 17.8616 15.0153 17.786C14.9926 17.7174 14.9919 17.6435 15.0133 17.5745C15.0313 17.5033 15.0703 17.4392 15.1253 17.3905C15.1635 17.3569 15.2075 17.3307 15.2553 17.313C15.2979 17.3003 15.3424 17.2956 15.3868 17.299C15.4308 17.3035 15.4828 17.3095 15.5383 17.3275C15.5993 17.344 15.6593 17.358 15.7208 17.38ZM19.2883 14.4235L18.2063 15.3875L18.7233 15.9705L19.7213 15.082C19.7948 15.014 19.8648 14.982 19.9288 14.982C19.9968 14.986 20.0528 15.012 20.1008 15.066C20.1232 15.0899 20.1405 15.1182 20.1515 15.1491C20.1625 15.18 20.167 15.2128 20.1648 15.2455C20.1603 15.309 20.1208 15.375 20.0448 15.445L19.0468 16.3335L19.6478 17.0085L20.7673 16.0125C20.8453 15.942 20.9153 15.9085 20.9853 15.9105C21.0202 15.9104 21.0547 15.9183 21.0862 15.9335C21.1176 15.9488 21.1452 15.971 21.1668 15.9985C21.1911 16.0233 21.2099 16.0531 21.2216 16.0858C21.2333 16.1185 21.2378 16.1534 21.2348 16.188C21.2263 16.256 21.1848 16.3235 21.1088 16.3915L19.8058 17.5555C19.6998 17.6475 19.6043 17.691 19.5163 17.6875C19.4283 17.679 19.3388 17.6275 19.2448 17.5235L17.6558 15.739C17.5958 15.669 17.5558 15.605 17.5383 15.5415C17.5185 15.4819 17.522 15.417 17.5483 15.36C17.5816 15.291 17.63 15.2304 17.6898 15.1825L18.9573 14.052C19.0353 13.982 19.1073 13.95 19.1753 13.951C19.2088 13.9514 19.2419 13.9591 19.2723 13.9734C19.3026 13.9877 19.3296 14.0084 19.3513 14.034C19.4013 14.09 19.4213 14.152 19.4128 14.22C19.4058 14.2855 19.3658 14.3535 19.2883 14.4235Z" fill="#243438"/>
<path d="M4.29834 17.6915L4.66984 17.36L12.0723 25.65L11.7013 25.982L4.29834 17.6915ZM17.4288 6.28799L17.7998 5.95599L25.2083 14.242L24.8368 14.574L17.4288 6.28799Z" fill="#BE1E2D"/>
</svg>
