<svg width="32" height="32" viewBox="0 0 32 32" fill="none" xmlns="http://www.w3.org/2000/svg">
<g clip-path="url(#clip0_5_837)">
<path d="M24.5 0H7.5C3.35786 0 0 3.35786 0 7.5V24.5C0 28.6421 3.35786 32 7.5 32H24.5C28.6421 32 32 28.6421 32 24.5V7.5C32 3.35786 28.6421 0 24.5 0Z" fill="white"/>
<path d="M24.5 0H7.5C3.35786 0 0 3.35786 0 7.5V24.5C0 28.6421 3.35786 32 7.5 32H24.5C28.6421 32 32 28.6421 32 24.5V7.5C32 3.35786 28.6421 0 24.5 0Z" fill="#1D9BF0"/>
<path d="M24.9465 11.4264C24.9603 11.6248 24.9603 11.8231 24.9603 12.0234C24.9603 18.123 20.3168 25.1578 11.8259 25.1578V25.154C9.31752 25.1576 6.86113 24.4392 4.75 23.0846C5.11475 23.1285 5.48125 23.1504 5.84875 23.1513C7.92771 23.1529 9.94685 22.4556 11.5817 21.1714C10.6185 21.1532 9.68501 20.8344 8.9118 20.2596C8.13859 19.6849 7.56431 18.8829 7.26925 17.9658C7.96085 18.0991 8.67382 18.0719 9.35325 17.8863C7.19975 17.4511 5.65037 15.559 5.65037 13.3615V13.303C6.29236 13.6606 7.01085 13.8587 7.74538 13.8808C5.71713 12.5251 5.09188 9.82675 6.31663 7.717C7.47554 9.14312 8.92149 10.3095 10.5606 11.1404C12.1996 11.9713 13.9952 12.448 15.8305 12.5398C15.6475 11.7521 15.6745 10.9301 15.9089 10.1561C16.1432 9.38216 16.5767 8.68327 17.1659 8.12938C19.0251 6.38163 21.9493 6.47125 23.697 8.3295C24.7308 8.12541 25.7221 7.74643 26.6284 7.20888C26.2838 8.27771 25.5626 9.18497 24.5991 9.76188C25.5142 9.65407 26.4078 9.40911 27.25 9.03525C26.6305 9.963 25.8505 10.7726 24.9465 11.4264Z" fill="white"/>
</g>
<defs>
<clipPath id="clip0_5_837">
<rect width="32" height="32" fill="white"/>
</clipPath>
</defs>
</svg>
