<svg width="32" height="32" viewBox="0 0 32 32" fill="none" xmlns="http://www.w3.org/2000/svg">
<path d="M31.9224 18.01C31.8574 17.835 31.6999 17.7075 31.5099 17.685C15.4299 15.58 9.82491 4.83 9.76991 4.72C9.73569 4.65182 9.68666 4.59216 9.62642 4.54537C9.56617 4.49858 9.49623 4.46584 9.42171 4.44955C9.34719 4.43325 9.26997 4.43382 9.1957 4.45119C9.12142 4.46857 9.05197 4.50233 8.99241 4.55L0.237413 11.4975C0.0474132 11.6475 -0.0100868 11.91 0.0949132 12.125C7.14491 26.5175 21.3199 30.155 21.4624 30.1925C21.5547 30.2151 21.6515 30.2116 21.742 30.1825C21.8325 30.1533 21.9131 30.0997 21.9749 30.0275L31.8324 18.5275C31.9574 18.385 31.9899 18.1875 31.9224 18.01ZM13.3799 25.7575C13.1199 25.7575 12.8099 25.6325 12.6949 25.395C12.5799 25.16 12.6299 24.8775 12.7924 24.6775C12.9099 24.5325 13.0724 24.4475 13.2449 24.415C14.2849 24.22 14.6749 25.7575 13.3799 25.7575ZM15.3024 24.25C15.0424 24.25 14.7324 24.125 14.6174 23.89C14.4999 23.655 14.5524 23.3725 14.7149 23.1725C14.8324 23.0275 14.9949 22.9425 15.1674 22.91C16.2124 22.7125 16.5974 24.25 15.3024 24.25ZM17.0649 22.6325C16.8024 22.6325 16.4924 22.5075 16.3774 22.27C16.2624 22.035 16.3149 21.7525 16.4774 21.5525C16.5974 21.4075 16.7574 21.3225 16.9299 21.29C17.9724 21.0925 18.3599 22.6325 17.0649 22.6325ZM18.7199 20.925C18.4599 20.925 18.1524 20.8 18.0349 20.5625C17.9174 20.3275 17.9699 20.045 18.1324 19.845C18.2499 19.7 18.4099 19.615 18.5824 19.5825C19.6274 19.3875 20.0149 20.925 18.7199 20.925ZM20.4924 19.055C20.2349 19.1 19.9074 19.03 19.7524 18.815C19.5999 18.6025 19.6024 18.315 19.7274 18.09C19.8199 17.9275 19.9649 17.8175 20.1299 17.755C21.1249 17.385 21.7674 18.835 20.4924 19.055ZM22.0124 17.315C21.7549 17.355 21.4299 17.2775 21.2774 17.0625C21.1274 16.8475 21.1349 16.56 21.2649 16.3375C21.3599 16.175 21.5049 16.0675 21.6724 16.01C22.6724 15.655 23.2924 17.1175 22.0124 17.315Z" fill="#40C0E7"/>
<path d="M11.8925 17.2775C11.765 17.385 11.7775 17.555 11.92 17.6575C11.92 17.6575 12.385 18.045 13.17 18.58C13.9625 19.12 14.71 19.49 14.71 19.49C14.8675 19.585 15.1025 19.575 15.23 19.465L15.855 18.9425C15.9875 18.8325 15.965 18.665 15.81 18.57C15.81 18.57 14.9125 18.07 14.245 17.635C13.4475 17.1125 13.0025 16.76 13.0025 16.76C12.855 16.6575 12.6325 16.66 12.5025 16.7675L11.8925 17.2775ZM10.205 18.8025C10.08 18.9075 10.0825 19.0875 10.2125 19.2C10.2125 19.2 10.9125 19.84 11.44 20.2625C11.97 20.69 12.73 21.2975 12.73 21.2975C12.87 21.41 13.09 21.4125 13.2175 21.3075L13.98 20.6675C14.1075 20.56 14.0925 20.39 13.945 20.29C13.945 20.29 13.14 19.76 12.56 19.35C11.9775 18.9375 11.24 18.34 11.24 18.34C11.1025 18.2325 10.89 18.2325 10.7625 18.3375L10.205 18.8025ZM8.89499 10.93C8.77249 11.0275 8.75749 11.205 8.86249 11.3275L9.08499 11.5775C9.19499 11.6975 9.38499 11.715 9.50999 11.6175L9.95749 11.265C10.0825 11.165 10.095 10.99 9.98249 10.8725L9.74999 10.6275C9.63999 10.51 9.44999 10.4925 9.32249 10.5925L8.89499 10.93ZM11.0675 13.205C10.94 13.305 10.935 13.4775 11.0575 13.59L11.5375 14.03C11.6625 14.1425 11.8675 14.1525 11.9975 14.055L12.515 13.655C12.6425 13.555 12.645 13.385 12.5175 13.275L12.0175 12.84C11.8925 12.7275 11.6875 12.72 11.56 12.8175L11.0675 13.205ZM13.9275 14.77C14.0575 14.67 14.0525 14.505 13.915 14.4025L13.44 14.035C13.305 13.93 13.09 13.925 12.96 14.025L12.4325 14.43C12.305 14.53 12.305 14.6975 12.435 14.8075L12.895 15.18C13.0275 15.2875 13.2425 15.2925 13.3725 15.1925L13.9275 14.77ZM15.485 15.835C15.6175 15.735 15.605 15.575 15.4575 15.48L14.9125 15.1175C14.77 15.02 14.545 15.0225 14.415 15.1225L13.8475 15.5525C13.7175 15.65 13.725 15.815 13.8625 15.9175L14.385 16.2875C14.5275 16.3875 14.755 16.3875 14.885 16.2875L15.485 15.835ZM8.96249 10.19C9.08749 10.0925 9.10499 9.91251 8.99999 9.79001L8.60999 9.33501C8.50999 9.21251 8.32999 9.19501 8.20749 9.29501L7.82499 9.60751C7.70499 9.70751 7.68249 9.89001 7.77999 10.015L8.14249 10.47C8.24249 10.595 8.42499 10.615 8.54999 10.5175L8.96249 10.19ZM16.5375 16.1375C16.385 16.05 16.15 16.0625 16.015 16.1625L15.4 16.6275C15.2675 16.7275 15.2825 16.885 15.43 16.9775L16.5725 17.6475C16.7275 17.735 16.96 17.72 17.0875 17.6125L17.73 17.08C17.86 16.9725 17.8325 16.8175 17.6725 16.7375L16.5375 16.1375ZM11.15 12.4425C11.275 12.345 11.2825 12.17 11.165 12.055L10.78 11.6825C10.665 11.5675 10.465 11.555 10.34 11.6525L9.87999 12.0125C9.75249 12.11 9.74499 12.2875 9.85499 12.405L10.225 12.7825C10.3425 12.9 10.54 12.915 10.6675 12.815L11.15 12.4425ZM10.9825 16.8125C11.025 16.815 11.0625 16.81 11.1 16.7925C11.285 16.7075 11.7175 16.305 11.7725 16.2625C11.98 16.1 11.9425 15.9725 11.7925 15.86C11.6825 15.7775 11.5825 15.6875 11.4775 15.6C11.2725 15.43 10.2975 14.7925 8.90999 13.2825C7.70749 11.975 6.92999 10.82 6.87749 10.75C6.83999 10.695 6.80499 10.6325 6.74749 10.595C6.63999 10.525 6.51749 10.68 6.44499 10.74L6.17999 10.96L6.01499 11.095C5.91499 11.18 5.93749 11.29 6.00249 11.39C6.06499 11.485 6.12999 11.58 6.19249 11.675C6.33749 11.89 6.48499 12.105 6.63749 12.315C6.82749 12.5775 7.02499 12.835 7.22749 13.0925C7.46499 13.3925 7.71249 13.69 7.96749 13.98C8.58417 14.6832 9.23846 15.3525 9.92749 15.985C10.1225 16.165 10.3225 16.3425 10.525 16.515C10.6175 16.595 10.7175 16.7025 10.8225 16.765C10.8725 16.7875 10.9275 16.8075 10.9825 16.8125ZM10.195 17.54C10.195 17.4525 10.0925 17.38 10.0325 17.325C9.95249 17.255 9.87249 17.1825 9.79499 17.11C9.64249 16.9675 9.48749 16.825 9.33749 16.6825C8.96749 16.33 8.60999 15.97 8.26249 15.605C7.94999 15.275 7.64749 14.9375 7.35249 14.5975C7.09499 14.3 6.84249 13.9925 6.59999 13.685C6.39499 13.4225 6.19499 13.1575 5.99999 12.8875C5.84499 12.6725 5.68999 12.4525 5.54249 12.2325C5.48499 12.145 5.42499 12.055 5.36749 11.965C5.34249 11.925 5.31749 11.8875 5.29249 11.8475C5.26249 11.8 5.21499 11.7275 5.15499 11.725C5.06499 11.7225 5.02499 11.7875 4.95999 11.8425C4.85749 11.925 4.75749 12.0075 4.65499 12.0925C4.60499 12.1325 4.55499 12.175 4.50499 12.2175C4.32749 12.3625 4.43499 12.48 4.53749 12.6425C4.59499 12.7325 4.65249 12.8225 4.70749 12.91C4.84749 13.1275 4.98999 13.34 5.13749 13.5525C5.31749 13.8125 5.50499 14.07 5.69499 14.3275C5.92249 14.6275 6.15249 14.9225 6.38999 15.2175C6.65999 15.5525 6.94249 15.885 7.22999 16.2125C7.55249 16.5775 7.88499 16.94 8.22499 17.295C8.39249 17.4725 8.56499 17.645 8.73749 17.82C8.81249 17.895 8.88499 17.97 8.95999 18.045C9.16499 18.2525 9.32499 18.315 9.55999 18.1375C9.68249 18.0475 9.79749 17.95 9.91499 17.8525C10.005 17.77 10.1975 17.6725 10.195 17.54Z" fill="#2F2F2F"/>
</svg>
