<svg width="24" height="24" viewBox="0 0 24 24" fill="none" xmlns="http://www.w3.org/2000/svg">
<g clip-path="url(#clip0_23_993)">
<path d="M18.6665 20H3.99984V5.33333H12.8132L14.1465 4H3.99984C3.64622 4 3.30708 4.14048 3.05703 4.39052C2.80698 4.64057 2.6665 4.97971 2.6665 5.33333V20C2.6665 20.3536 2.80698 20.6928 3.05703 20.9428C3.30708 21.1929 3.64622 21.3333 3.99984 21.3333H18.6665C19.0201 21.3333 19.3593 21.1929 19.6093 20.9428C19.8594 20.6928 19.9998 20.3536 19.9998 20V10L18.6665 11.3333V20Z" fill="#A1A3A4"/>
<path d="M22.3531 3.89335L20.1065 1.64668C20.0068 1.5467 19.8883 1.46738 19.7579 1.41325C19.6275 1.35913 19.4877 1.33127 19.3465 1.33127C19.2053 1.33127 19.0655 1.35913 18.935 1.41325C18.8046 1.46738 18.6862 1.5467 18.5865 1.64668L9.44648 10.84L8.70648 14.0467C8.67495 14.2021 8.67826 14.3626 8.71618 14.5166C8.7541 14.6706 8.82567 14.8143 8.92576 14.9374C9.02585 15.0604 9.15196 15.1597 9.29502 15.2282C9.43808 15.2967 9.59454 15.3326 9.75314 15.3333C9.83512 15.3424 9.91783 15.3424 9.99981 15.3333L13.2331 14.62L22.3531 5.41335C22.4531 5.31364 22.5324 5.19519 22.5866 5.06477C22.6407 4.93436 22.6686 4.79455 22.6686 4.65335C22.6686 4.51215 22.6407 4.37234 22.5866 4.24192C22.5324 4.11151 22.4531 3.99305 22.3531 3.89335ZM12.5398 13.3867L10.0998 13.9267L10.6665 11.5067L17.5465 4.58001L19.4265 6.46001L12.5398 13.3867ZM20.1798 5.70668L18.2998 3.82668L19.3331 2.77335L21.2265 4.66668L20.1798 5.70668Z" fill="#A1A3A4"/>
</g>
<defs>
<clipPath id="clip0_23_993">
<rect width="24" height="24" fill="white"/>
</clipPath>
</defs>
</svg>
