<svg width="32" height="32" viewBox="0 0 32 32" fill="none" xmlns="http://www.w3.org/2000/svg">
<g clip-path="url(#clip0_86_611)">
<path d="M4.07772 8.87501C4.31772 8.78251 4.57772 8.66751 4.86272 8.52251C3.93772 11.6075 3.39272 14.8375 2.93772 17.8725C2.77272 18.99 2.61522 20.0825 2.53272 21.1975C2.51772 21.4025 2.49272 21.6125 2.46772 21.82C2.39022 22.47 2.31022 23.1425 2.47022 23.845C2.64022 24.595 3.16272 25.0775 3.80272 25.0775C4.10272 25.0775 4.40522 24.9725 4.69772 24.7625C5.48522 24.2 5.49772 23.25 5.51022 22.555C5.51272 22.4125 5.51272 22.275 5.52272 22.145C5.59522 21.1025 5.71772 20.01 5.89772 18.8L5.95272 18.425C6.55522 14.38 7.17772 10.1975 9.03772 6.58751L9.20272 6.26751C9.84022 5.05501 10.7127 3.39251 10.1652 1.86001C9.96022 1.28751 9.42772 0.917511 8.80772 0.917511C8.53772 0.917511 8.26522 0.992511 8.01772 1.13501C7.58272 1.39251 7.27772 1.78751 7.01022 2.13501C6.87522 2.31001 6.74772 2.47751 6.61772 2.60501C5.82022 3.40251 5.03772 4.17001 4.20022 4.81001C3.81272 5.10751 3.39522 5.38251 3.03772 5.61751C2.98272 5.65501 2.90272 5.69751 2.81272 5.74751C2.62772 5.85251 2.41522 5.97251 2.25272 6.09501C2.17522 6.15501 2.08772 6.21251 2.00522 6.27001C1.55522 6.57501 0.802721 7.08251 1.04272 8.09001C1.12272 8.41751 1.39522 8.98501 2.34022 9.09251C2.96772 9.16251 3.48272 9.09751 4.07772 8.87501Z" fill="#ED6C30"/>
<path d="M8.40272 17.515C8.94022 18.59 9.83272 19.325 11.0602 19.7C11.3902 19.8 11.7252 19.8525 12.0627 19.8525C15.3302 19.8525 17.6802 15.26 18.3077 13.4925C18.5552 12.8 18.7577 12.14 18.9227 11.505C18.9352 11.67 18.9502 11.8325 18.9727 11.9975C19.1627 13.3725 19.7477 14.5075 20.6677 15.2775C21.2702 15.7825 22.1602 16.15 23.0527 16.2625C23.4027 16.3075 23.7702 16.33 24.1227 16.33C24.7852 16.33 25.3552 16.2525 25.8102 16.0975C26.2152 15.96 26.6102 15.775 26.9852 15.545C28.6777 14.5025 29.6327 12.79 30.1352 11.535C31.3352 8.55 31.5352 4.23 29.1452 1.8C28.5724 1.21769 27.8583 0.793901 27.0727 0.57C26.9227 0.5275 26.7702 0.4975 26.6152 0.4675L26.4502 0.435C26.3877 0.4225 26.3227 0.3975 26.2602 0.3775C26.1777 0.35 26.0927 0.3225 26.0102 0.3C25.8777 0.2675 25.7552 0.25 25.6202 0.25H25.6177C25.2402 0.255 24.9202 0.355 24.6352 0.445C24.4902 0.49 24.3452 0.5375 24.1927 0.565C23.3402 0.7225 22.5327 1.0125 21.7552 1.2925C21.2952 1.46 20.8577 1.6175 20.4102 1.75C19.2327 2.0975 18.2702 2.1125 16.8852 1.785L16.7827 1.76C16.4902 1.6875 16.2377 1.6225 15.7677 1.73C15.5377 1.78 15.2252 1.85 14.9602 2.1925L14.8902 2.305L14.8652 2.355L14.7977 2.39C12.2152 3.8 10.0652 6.5725 8.74522 10.1925C8.23272 11.58 7.18772 15.075 8.40272 17.515ZM10.9002 13.885C11.1052 11.4825 12.2352 8.895 14.0077 6.7875C14.7102 5.9525 15.2077 5.53 15.4902 5.53C15.6027 5.53 15.8002 5.7275 15.9927 6.2825C16.3627 7.35 16.4077 8.615 16.1252 10.0425C16.0252 10.545 15.8852 11.0625 15.7052 11.575C15.2752 12.81 14.7627 14.0975 13.9152 15.1325C13.5877 15.5325 13.1102 15.8675 12.6052 16.0475C12.0402 16.25 11.6277 16.2125 11.3452 15.9025C10.9952 15.525 10.8252 14.7525 10.9002 13.885ZM22.5752 7.82C22.8052 7.0525 23.1827 6.2725 23.6977 5.505L23.7677 5.4025C24.0452 4.99 24.6877 4.025 25.0802 3.8575C25.2202 3.7975 25.3527 3.7425 25.4752 3.6925H25.4777C26.1377 3.6925 26.6377 3.9075 27.0077 4.35C27.8427 5.35 27.8477 7.2925 27.5952 8.6525C27.1627 11.0075 26.0952 12.4425 24.3327 13.0325C23.6352 13.265 23.1527 13.185 22.8102 12.7275C22.0302 11.6775 22.1752 9.1575 22.5752 7.82ZM19.3402 6.6875C19.2902 6.3 19.2177 5.9225 19.1227 5.5625C19.1002 5.4775 19.0677 5.39 19.0327 5.3C19.1377 5.275 19.2702 5.2625 19.4077 5.25C19.5577 5.2375 19.7052 5.2225 19.8452 5.195C19.9902 5.1675 20.1277 5.135 20.2527 5.1025C19.8477 5.8275 19.5902 6.6125 19.4002 7.3625C19.3877 7.1325 19.3702 6.9075 19.3402 6.6875ZM24.9927 17.96L24.1652 18.0875C19.3977 18.805 15.2152 19.7925 11.3827 21.1075C10.3202 21.47 9.17772 21.8925 7.88522 22.3925C7.78772 22.43 7.69022 22.46 7.59272 22.49C7.14772 22.6275 6.22022 22.9125 6.33772 24.0375C6.41772 24.7725 6.93022 25.2875 7.58272 25.2875H7.64772C7.89772 25.275 8.13022 25.1775 8.33522 25.0925C8.41522 25.06 8.49272 25.025 8.56272 25.005C8.92022 24.91 9.29772 24.7925 9.75272 24.635C13.9052 23.205 18.0727 21.9075 22.1377 20.7825L23.4252 20.43C24.1002 20.245 24.7777 20.0625 25.4502 19.8725C25.9327 19.735 26.2202 19.3025 26.1552 18.8225C26.0777 18.27 25.5802 17.87 24.9927 17.96ZM29.7152 20.3925L27.6477 20.8375C23.5977 21.7075 19.4077 22.6075 15.3627 23.8325C12.7852 24.6125 10.3077 25.55 7.57022 26.6075C6.20772 27.1325 4.90772 27.825 3.81272 28.435C3.72522 28.485 3.61772 28.535 3.50272 28.5875C3.00272 28.8225 2.31772 29.145 2.09772 29.78C1.83272 30.5425 2.32022 31.3025 2.94272 31.5975C3.15522 31.6975 3.36022 31.7475 3.56522 31.7475C3.87772 31.7475 4.13772 31.6325 4.33022 31.5325C4.52272 31.43 4.72522 31.34 4.92772 31.25C5.11772 31.165 5.30772 31.08 5.49022 30.9875C10.8227 28.32 16.6002 26.41 21.5927 24.83C23.1552 24.335 24.8402 23.8375 26.7502 23.31L27.0552 23.225C28.1077 22.9325 29.1627 22.6425 30.2152 22.345C30.7077 22.205 31.0027 21.755 30.9302 21.2525C30.9134 21.1133 30.8676 20.9792 30.7958 20.8587C30.724 20.7383 30.6278 20.6342 30.5133 20.5532C30.3989 20.4722 30.2687 20.4161 30.1313 20.3884C29.9938 20.3607 29.8521 20.3621 29.7152 20.3925Z" fill="#ED6C30"/>
</g>
<defs>
<clipPath id="clip0_86_611">
<rect width="32" height="32" fill="white"/>
</clipPath>
</defs>
</svg>
