<svg width="32" height="32" viewBox="0 0 32 32" fill="none" xmlns="http://www.w3.org/2000/svg">
<g clip-path="url(#clip0_86_770)">
<path d="M31.2523 16.2993C31.2523 14.9883 31.1459 14.0316 30.9157 13.0395H15.9451V18.9568H24.7325C24.5554 20.4273 23.5987 22.6419 21.4726 24.1301L21.4428 24.3282L26.1763 27.9951L26.5042 28.0278C29.516 25.2463 31.2523 21.1537 31.2523 16.2993Z" fill="#4285F4"/>
<path d="M15.945 31.8901C20.2501 31.8901 23.8642 30.4727 26.5041 28.0279L21.4725 24.1301C20.1261 25.0691 18.3189 25.7246 15.945 25.7246C11.7284 25.7246 8.14966 22.9432 6.87394 19.0986L6.68694 19.1145L1.76505 22.9236L1.70068 23.1025C4.32273 28.3112 9.70862 31.8901 15.945 31.8901Z" fill="#34A853"/>
<path d="M6.87401 19.0986C6.5374 18.1065 6.3426 17.0434 6.3426 15.945C6.3426 14.8465 6.5374 13.7835 6.85631 12.7914L6.84739 12.5801L1.86382 8.70984L1.70076 8.7874C0.620092 10.9489 0 13.3761 0 15.945C0 18.5139 0.620092 20.941 1.70076 23.1025L6.87401 19.0986Z" fill="#FBBC05"/>
<path d="M15.945 6.16537C18.939 6.16537 20.9587 7.45869 22.1103 8.53948L26.6104 4.14571C23.8466 1.57679 20.2501 0 15.945 0C9.70862 0 4.32273 3.57875 1.70068 8.78742L6.85623 12.7915C8.14966 8.94693 11.7284 6.16537 15.945 6.16537Z" fill="#EB4335"/>
</g>
<defs>
<clipPath id="clip0_86_770">
<rect width="31.2672" height="32" fill="white"/>
</clipPath>
</defs>
</svg>
