<svg width="32" height="32" viewBox="0 0 32 32" fill="none" xmlns="http://www.w3.org/2000/svg">
<g clip-path="url(#clip0_5_816)">
<g clip-path="url(#clip1_5_816)">
<path d="M27.2654 27.2659H22.524V19.8405C22.524 18.0699 22.4924 15.7905 20.058 15.7905C17.5885 15.7905 17.2106 17.7198 17.2106 19.7116V27.2654H12.4694V11.9959H17.021V14.0826H17.0848C17.5403 13.3038 18.1985 12.663 18.9894 12.2286C19.7802 11.7943 20.6741 11.5825 21.5758 11.616C26.3814 11.616 27.2674 14.777 27.2674 18.8893L27.2654 27.2659ZM7.11938 9.90875C5.59975 9.909 4.36763 8.67725 4.36738 7.15763C4.36713 5.638 5.59875 4.40588 7.11838 4.40563C8.638 4.40525 9.87013 5.637 9.87038 7.15663C9.87051 7.88638 9.58075 8.5863 9.06484 9.10242C8.54893 9.61854 7.84913 9.90859 7.11938 9.90875ZM9.49013 27.266H4.74375V11.9959H9.49V27.2659L9.49013 27.266ZM29.6291 0.00225269H2.36125C1.0725 -0.0122473 0.0156279 1.02013 -0.00012207 2.30888V29.6905C0.0151279 30.9799 1.07188 32.0133 2.36113 31.9998H29.6291C30.9211 32.0158 31.982 30.9824 31.9999 29.6905V2.30675C31.9815 1.0155 30.9205 -0.0167473 29.6291 0.000127693" fill="#0A66C2"/>
</g>
</g>
<defs>
<clipPath id="clip0_5_816">
<rect width="32" height="32" fill="white"/>
</clipPath>
<clipPath id="clip1_5_816">
<rect width="32" height="32" fill="white"/>
</clipPath>
</defs>
</svg>
