<svg width="40" height="40" viewBox="0 0 40 40" fill="none" xmlns="http://www.w3.org/2000/svg">
<path d="M20.0001 10.6667C21.2378 10.6667 22.4247 11.1583 23.2999 12.0335C24.1751 12.9087 24.6667 14.0956 24.6667 15.3333C24.6667 16.571 24.1751 17.758 23.2999 18.6332C22.4247 19.5083 21.2378 20 20.0001 20C18.7624 20 17.5754 19.5083 16.7002 18.6332C15.8251 17.758 15.3334 16.571 15.3334 15.3333C15.3334 14.0956 15.8251 12.9087 16.7002 12.0335C17.5754 11.1583 18.7624 10.6667 20.0001 10.6667ZM20.0001 22.3333C25.1567 22.3333 29.3334 24.4217 29.3334 27V29.3333H10.6667V27C10.6667 24.4217 14.8434 22.3333 20.0001 22.3333Z" fill="#A1A3A4"/>
</svg>
