<svg width="261" height="261" viewBox="0 0 261 261" fill="none" xmlns="http://www.w3.org/2000/svg">
<circle cx="130.5" cy="130.5" r="130.5" fill="white"/>
<path d="M89.5828 144.211L93.3797 146.859C91.7859 149.172 89.7312 151.008 87.2156 152.367C85.9812 153.023 84.6687 153.531 83.2781 153.891C81.9031 154.25 80.4734 154.43 78.9891 154.43C77.3484 154.43 75.7781 154.219 74.2781 153.797C71.2781 152.938 68.6687 151.375 66.45 149.109C65.3875 148.031 64.4656 146.812 63.6844 145.453C62.9187 144.109 62.325 142.664 61.9031 141.117C61.4812 139.57 61.2703 137.961 61.2703 136.289C61.2703 134.617 61.4812 133.008 61.9031 131.461C62.7469 128.352 64.2625 125.68 66.45 123.445C67.5125 122.367 68.7078 121.422 70.0359 120.609C71.3484 119.828 72.7625 119.227 74.2781 118.805C75.7937 118.367 77.3641 118.148 78.9891 118.148C80.3797 118.148 81.7234 118.305 83.0203 118.617C84.3172 118.93 85.5516 119.375 86.7234 119.953C89.0828 121.109 91.0906 122.734 92.7469 124.828L89.1609 127.758C87.9422 126.242 86.4578 125.039 84.7078 124.148C82.9734 123.258 81.0672 122.812 78.9891 122.812C77.1766 122.812 75.4812 123.172 73.9031 123.891C72.325 124.594 70.9422 125.555 69.7547 126.773C68.5672 127.992 67.6297 129.422 66.9422 131.062C66.2703 132.688 65.9344 134.43 65.9344 136.289C65.9344 138.148 66.2703 139.898 66.9422 141.539C67.6297 143.18 68.5672 144.609 69.7547 145.828C70.9422 147.047 72.325 148.016 73.9031 148.734C75.4812 149.438 77.1766 149.789 78.9891 149.789C80.0828 149.789 81.1375 149.656 82.1531 149.391C83.1687 149.125 84.1297 148.75 85.0359 148.266C86.8484 147.297 88.3641 145.945 89.5828 144.211ZM112.888 141.633C112.888 143.602 112.56 145.422 111.904 147.094C111.247 148.766 110.349 150.219 109.208 151.453C108.068 152.688 106.732 153.648 105.201 154.336C103.669 155.039 102.037 155.391 100.302 155.391C96.7553 155.391 93.81 154.125 91.4662 151.594C90.3256 150.391 89.4272 148.945 88.7709 147.258C88.1147 145.57 87.7866 143.695 87.7866 141.633C87.7866 139.555 88.1147 137.672 88.7709 135.984C89.4272 134.281 90.3256 132.828 91.4662 131.625C92.5912 130.422 93.9116 129.492 95.4272 128.836C96.9428 128.18 98.5678 127.852 100.302 127.852C102.037 127.852 103.669 128.203 105.201 128.906C106.732 129.594 108.068 130.547 109.208 131.766C110.349 133 111.247 134.461 111.904 136.148C112.56 137.82 112.888 139.648 112.888 141.633ZM107.943 141.586C107.943 140.461 107.802 139.32 107.521 138.164C107.24 137.008 106.794 135.977 106.185 135.07C105.576 134.148 104.787 133.406 103.818 132.844C102.849 132.266 101.677 131.977 100.302 131.977C98.9741 131.977 97.8334 132.266 96.8803 132.844C95.9272 133.406 95.1459 134.148 94.5366 135.07C93.9272 135.977 93.4819 137.008 93.2006 138.164C92.9194 139.32 92.7787 140.461 92.7787 141.586C92.7787 142.711 92.9272 143.844 93.2241 144.984C93.5366 146.109 94.0053 147.133 94.6303 148.055C95.2553 148.961 96.0366 149.711 96.9741 150.305C97.9272 150.883 99.0366 151.172 100.302 151.172C101.63 151.172 102.771 150.883 103.724 150.305C104.693 149.711 105.49 148.961 106.115 148.055C106.74 147.133 107.201 146.109 107.497 144.984C107.794 143.844 107.943 142.711 107.943 141.586ZM132.842 154.594L127.498 154.688L127.404 147.961C126.889 148.883 126.303 149.758 125.647 150.586C124.99 151.398 124.279 152.109 123.514 152.719C122.748 153.344 121.928 153.836 121.053 154.195C120.193 154.555 119.287 154.719 118.334 154.688C116.912 154.641 115.709 154.375 114.725 153.891C113.725 153.406 112.873 152.758 112.17 151.945C111.482 151.133 110.936 150.203 110.529 149.156C110.092 148.062 109.772 146.953 109.568 145.828C109.35 144.656 109.201 143.461 109.123 142.242C109.061 141.008 109.029 139.812 109.029 138.656C109.029 137.031 109.1 135.391 109.24 133.734C109.381 132.062 109.584 130.359 109.85 128.625L114.654 128.766C114.404 130.703 114.232 132.445 114.139 133.992C114.061 135.539 114.022 136.898 114.022 138.07C114.022 138.336 114.022 138.641 114.022 138.984C114.022 139.312 114.029 139.68 114.045 140.086C114.061 140.898 114.115 141.766 114.209 142.688C114.318 143.594 114.482 144.492 114.701 145.383C114.904 146.242 115.217 147.031 115.639 147.75C116.045 148.453 116.545 148.992 117.139 149.367C117.748 149.742 118.498 149.867 119.389 149.742C120.576 149.586 121.834 148.758 123.162 147.258C124.475 145.758 125.842 143.477 127.264 140.414L127.147 134.461C127.131 133.727 127.115 133.078 127.1 132.516C127.084 131.938 127.068 131.453 127.053 131.062C127.022 130.125 126.998 129.484 126.982 129.141L132.022 128.578L132.279 135.844C132.311 136.938 132.342 137.969 132.373 138.938C132.404 139.906 132.436 140.82 132.467 141.68C132.498 142.555 132.529 143.516 132.561 144.562C132.592 145.594 132.623 146.562 132.654 147.469C132.686 148.375 132.709 149.094 132.725 149.625C132.756 150.734 132.779 151.703 132.795 152.531C132.811 153.359 132.826 154.047 132.842 154.594ZM138.93 154.102L133.891 154.734L133.422 141.586C133.391 140.695 133.36 139.742 133.328 138.727C133.297 137.695 133.266 136.727 133.235 135.82C133.203 134.898 133.18 134.172 133.164 133.641C133.102 131.438 133.055 129.781 133.024 128.672L138.367 128.578L138.461 135.328C138.977 134.438 139.563 133.602 140.219 132.82C140.875 132.023 141.586 131.32 142.352 130.711C143.117 130.102 143.93 129.609 144.789 129.234C145.664 128.859 146.578 128.641 147.532 128.578C148.735 128.5 149.774 128.602 150.649 128.883C151.524 129.164 152.274 129.555 152.899 130.055C153.524 130.539 154.039 131.125 154.446 131.812C154.867 132.516 155.188 133.219 155.407 133.922C155.641 134.641 155.805 135.367 155.899 136.102C156.008 136.82 156.078 137.477 156.11 138.07C156.203 140.758 156.227 143.461 156.18 146.18C156.133 148.898 156.078 151.719 156.016 154.641L151.211 154.477C151.336 151.961 151.446 149.445 151.539 146.93C151.649 144.414 151.641 141.875 151.516 139.312C151.516 138.766 151.453 138.141 151.328 137.438C151.203 136.719 150.977 136.008 150.649 135.305C150.414 134.82 150.11 134.391 149.735 134.016C149.36 133.656 148.899 133.383 148.352 133.195C147.821 133.008 147.196 132.969 146.477 133.078C145.242 133.266 143.992 134.164 142.727 135.773C141.477 137.336 140.102 139.703 138.602 142.875L138.766 148.875C138.782 149.625 138.797 150.281 138.813 150.844C138.828 151.406 138.844 151.883 138.86 152.273C138.891 153.18 138.914 153.789 138.93 154.102ZM161.987 129.82L162.174 119.555L166.838 119.25L166.674 129.727L175.768 129.422L175.417 133.805L166.627 134.039L166.44 154.477L161.495 154.594L161.893 134.18L153.784 134.367L153.877 130.055L161.987 129.82ZM199.683 131.93C199.636 133.133 199.394 134.234 198.956 135.234C198.519 136.234 197.941 137.133 197.222 137.93C196.503 138.742 195.667 139.469 194.714 140.109C193.761 140.734 192.745 141.273 191.667 141.727L198.487 152.461L193.636 154.055L187.073 143.109C186.323 143.25 185.542 143.367 184.73 143.461C183.933 143.555 183.05 143.602 182.081 143.602C181.3 143.602 180.441 143.57 179.503 143.508C178.581 143.43 177.612 143.297 176.597 143.109L176.691 153.047L171.745 153.234V120.07C173.089 119.664 174.433 119.359 175.777 119.156C177.12 118.953 178.347 118.797 179.456 118.688C180.753 118.562 181.995 118.492 183.183 118.477C184.198 118.477 185.323 118.547 186.558 118.688C187.792 118.828 189.027 119.078 190.261 119.438C191.511 119.797 192.722 120.297 193.894 120.938C195.05 121.578 196.073 122.391 196.964 123.375C197.839 124.375 198.527 125.578 199.027 126.984C199.527 128.391 199.745 130.039 199.683 131.93ZM183.183 123.188C182.823 123.188 182.456 123.195 182.081 123.211C181.722 123.227 181.347 123.25 180.956 123.281C180.3 123.328 179.573 123.398 178.777 123.492C177.98 123.57 177.206 123.695 176.456 123.867L176.55 138.797C177.284 138.938 178.019 139.039 178.753 139.102C179.503 139.148 180.23 139.172 180.933 139.172C182.808 139.172 184.581 138.961 186.253 138.539C187.941 138.102 189.417 137.508 190.683 136.758C191.948 136.008 192.956 135.125 193.706 134.109C194.456 133.078 194.831 131.969 194.831 130.781C194.831 129.578 194.542 128.508 193.964 127.57C193.402 126.633 192.605 125.836 191.573 125.18C189.448 123.852 186.652 123.188 183.183 123.188Z" fill="black"/>
</svg>
