<svg width="61" height="60" viewBox="0 0 61 60" fill="none" xmlns="http://www.w3.org/2000/svg">
<circle cx="30.5" cy="30" r="30" fill="#1DA1F2"/>
<path d="M25.1667 30C28.8487 30 31.8333 27.0153 31.8333 23.3333C31.8333 19.6513 28.8487 16.6667 25.1667 16.6667C21.4847 16.6667 18.5 19.6513 18.5 23.3333C18.5 27.0153 21.4847 30 25.1667 30Z" stroke="white" stroke-width="2" stroke-linejoin="round"/>
<path d="M31.8333 24.1347C31.8427 24.144 34.982 28.092 41.2507 35.9773C41.3569 36.1052 41.4115 36.268 41.4038 36.434C41.3962 36.6 41.3268 36.7572 41.2093 36.8747L38.4867 39.5973C38.3692 39.7148 38.212 39.7842 38.046 39.7918C37.88 39.7995 37.7172 39.7449 37.5893 39.6387L26.3813 30M32.1467 30.3133L34.0327 32.1993" stroke="white" stroke-width="2" stroke-linecap="round" stroke-linejoin="round"/>
<path d="M25.8333 43.3907C27.1113 41.7253 28.6646 40.8927 30.4933 40.8927C33.2373 40.8927 36.4753 44.3393 39.2373 43.8653C41.9999 43.3907 42.7906 40.6667 41.0906 39.1587" stroke="white" stroke-width="2" stroke-linecap="round" stroke-linejoin="round"/>
</svg>
