<svg width="60" height="60" viewBox="0 0 60 60" fill="none" xmlns="http://www.w3.org/2000/svg">
<g clip-path="url(#clip0_24_1237)">
<path d="M32.4062 28.4062V58.125C32.4062 58.125 44.6875 49.5 53.3125 46.9687C53.3125 46.9687 53.6875 28.5938 59.0312 19.4062L32.4062 28.4062Z" fill="#076170"/>
<path d="M40.0938 53.625C40.0938 53.625 40.5625 27.2812 41.5 25.9688C42.4375 24.5625 50.5 23.1562 50.5 23.1562C50.5 23.1562 47.2188 47.8125 47.9688 49.4062C48.0625 49.3125 44.6875 50.7188 40.0938 53.625Z" fill="#B3690E"/>
<path d="M32.4062 58.125C32.4062 58.125 23.7812 50.8125 10.375 46.9687C10.375 46.9687 11.4062 31.875 6.53125 20.3438L32.4062 28.4062V58.125Z" fill="#3BAACF"/>
<path d="M15.8125 49.4062C15.8125 49.4062 23.6875 52.5938 24.25 53.625C24.8125 54.6562 24.8125 27.0937 24.8125 27.0937C24.8125 27.0937 14.0312 24.0938 13.0938 24.0938C13.0938 24.0938 16.375 35.25 15.8125 49.4062Z" fill="#E9C243"/>
<path opacity="0.3" d="M32.4062 28.4062V33.375L56.5 25.125C57.1562 23.0625 58 21.0937 58.9375 19.4062L32.4062 28.4062ZM8.21875 25.5C7.75 23.7187 7.1875 22.0312 6.4375 20.3437L32.3125 28.4062V33.375L8.21875 25.5Z" fill="black"/>
<path d="M4.375 17.7188L31.0938 23.625L60.625 16.5L31.6562 14.9062L4.375 17.7188Z" fill="#4FC7E8"/>
<path d="M4.375 17.7188L6.53125 23.625L31.0938 30.5625V23.625L4.375 17.7188Z" fill="#3BAACF"/>
<path d="M31.0938 30.5625C31.0938 30.5625 53.4062 22.3125 58.9375 21.9375C58.9375 21.9375 59.3125 18.6562 60.625 16.5938L31.0938 23.625V30.5625Z" fill="#076170"/>
<path d="M12.3438 19.5L17.7812 24.6562L23.7813 21.9375L32.5 19.3125L43.375 20.625L49.0938 21.75L53.6875 18.1875L12.3438 19.5Z" fill="#F0AE11"/>
<path d="M23.7813 21.9375L32.5 19.3125L43.375 20.625L53.6875 18.1875L31.9375 16.125L12.3438 19.5L23.7813 21.9375Z" fill="#F0AE11"/>
<path d="M12.3438 19.5V26.0625L23.3125 29.0625L23.7813 21.9375L12.3438 19.5Z" fill="#F8D048"/>
<path d="M43.375 20.625L43.5625 26.9063L52.9375 24.0938L53.6875 18.1875L43.375 20.625Z" fill="#C47116"/>
<path d="M37.4688 16.2187C37.4688 16.2187 37.4688 9.65625 43.8438 3.9375C43.8438 3.9375 40.0001 5.34375 38.1251 4.96875C35.8751 4.59375 35.1251 1.875 35.1251 1.875C35.1251 1.875 29.6876 13.6875 31.2813 15.1875C32.8751 16.7813 37.4688 16.2187 37.4688 16.2187Z" fill="#EA9F07"/>
<path d="M29.125 20.0625C29.125 20.0625 25.4688 12.5625 17.6875 8.625C17.6875 8.625 23.7813 8.0625 25.1875 7.3125C26.9688 6.46875 28 4.125 28 4.125C28 4.125 34.75 15.9375 34.1875 17.7188C33.625 19.5 29.125 20.0625 29.125 20.0625Z" fill="#F8D048"/>
<path d="M33.0624 19.2187C33.0624 19.2187 27.3437 21.4687 20.0312 21.4687C4.65615 21.375 2.4999 10.3125 17.6874 11.3437C30.1562 12.2812 33.0624 19.2187 33.0624 19.2187Z" fill="#EA9F07"/>
<path d="M32.0312 19.125C32.0312 19.125 38.7812 19.6875 45.0625 18.0938C58.1875 14.7188 53.3125 4.78126 40.9375 9.00001C30.8125 12.4688 32.0312 19.125 32.0312 19.125Z" fill="#F0AE11"/>
<path d="M33.0625 19.2188C33.0625 19.2188 29.5 20.625 24.9062 20.625C15.3437 20.625 13.9375 13.6875 23.4062 14.3438C31.1875 14.9063 33.0625 19.2188 33.0625 19.2188Z" fill="#824000"/>
<path d="M33.0624 19.2188C33.0624 19.2188 37.7499 19.5938 42.1562 18.4688C51.3437 16.125 47.8749 9.18751 39.3437 12.0938C32.2187 14.5313 33.0624 19.2188 33.0624 19.2188Z" fill="#824000"/>
</g>
<defs>
<clipPath id="clip0_24_1237">
<rect width="60" height="60" fill="white"/>
</clipPath>
</defs>
</svg>
