<svg width="113" height="120" viewBox="0 0 113 120" fill="none" xmlns="http://www.w3.org/2000/svg">
<g filter="url(#filter0_d_23_776)">
<circle cx="50" cy="50" r="40" fill="#1DA1F2"/>
<path d="M49.893 62.8572C50.643 62.8572 51.2772 62.5979 51.7958 62.0793C52.313 61.5622 52.5715 60.9286 52.5715 60.1786C52.5715 59.4286 52.313 58.795 51.7958 58.2779C51.2772 57.7593 50.643 57.5 49.893 57.5C49.143 57.5 48.5087 57.7593 47.9901 58.2779C47.473 58.795 47.2144 59.4286 47.2144 60.1786C47.2144 60.9286 47.473 61.5622 47.9901 62.0793C48.5087 62.5979 49.143 62.8572 49.893 62.8572ZM47.9644 54.6072H51.9287C51.9287 53.4286 52.063 52.5 52.3315 51.8214C52.5987 51.1429 53.3572 50.2143 54.6072 49.0357C55.5358 48.1072 56.268 47.2229 56.8037 46.3829C57.3394 45.5443 57.6072 44.5357 57.6072 43.3572C57.6072 41.3572 56.8751 39.8214 55.4108 38.75C53.9465 37.6786 52.2144 37.1429 50.2144 37.1429C48.1787 37.1429 46.5272 37.6786 45.2601 38.75C43.9915 39.8214 43.1072 41.1072 42.6072 42.6072L46.143 44C46.3215 43.3572 46.7237 42.6607 47.3494 41.9107C47.9737 41.1607 48.9287 40.7857 50.2144 40.7857C51.3572 40.7857 52.2144 41.0979 52.7858 41.7222C53.3572 42.3479 53.643 43.0357 53.643 43.7857C53.643 44.5 53.4287 45.1693 53.0001 45.7936C52.5715 46.4193 52.0358 47 51.393 47.5357C49.8215 48.9286 48.8572 49.9822 48.5001 50.6964C48.143 51.4107 47.9644 52.7143 47.9644 54.6072ZM50.0001 71.4286C47.0358 71.4286 44.2501 70.8657 41.643 69.74C39.0358 68.6157 36.768 67.0893 34.8394 65.1607C32.9108 63.2322 31.3844 60.9643 30.2601 58.3572C29.1344 55.75 28.5715 52.9643 28.5715 50C28.5715 47.0357 29.1344 44.25 30.2601 41.6429C31.3844 39.0357 32.9108 36.7679 34.8394 34.8393C36.768 32.9107 39.0358 31.3836 41.643 30.2579C44.2501 29.1336 47.0358 28.5714 50.0001 28.5714C52.9644 28.5714 55.7501 29.1336 58.3572 30.2579C60.9644 31.3836 63.2322 32.9107 65.1608 34.8393C67.0894 36.7679 68.6158 39.0357 69.7401 41.6429C70.8658 44.25 71.4287 47.0357 71.4287 50C71.4287 52.9643 70.8658 55.75 69.7401 58.3572C68.6158 60.9643 67.0894 63.2322 65.1608 65.1607C63.2322 67.0893 60.9644 68.6157 58.3572 69.74C55.7501 70.8657 52.9644 71.4286 50.0001 71.4286Z" fill="white"/>
</g>
<defs>
<filter id="filter0_d_23_776" x="0" y="0" width="120" height="120" filterUnits="userSpaceOnUse" color-interpolation-filters="sRGB">
<feFlood flood-opacity="0" result="BackgroundImageFix"/>
<feColorMatrix in="SourceAlpha" type="matrix" values="0 0 0 0 0 0 0 0 0 0 0 0 0 0 0 0 0 0 127 0" result="hardAlpha"/>
<feOffset dx="10" dy="10"/>
<feGaussianBlur stdDeviation="10"/>
<feComposite in2="hardAlpha" operator="out"/>
<feColorMatrix type="matrix" values="0 0 0 0 0.729412 0 0 0 0 0.407843 0 0 0 0 0.784314 0 0 0 0.4 0"/>
<feBlend mode="normal" in2="BackgroundImageFix" result="effect1_dropShadow_23_776"/>
<feBlend mode="normal" in="SourceGraphic" in2="effect1_dropShadow_23_776" result="shape"/>
</filter>
</defs>
</svg>
