<svg width="186" height="46" viewBox="0 0 186 46" fill="none" xmlns="http://www.w3.org/2000/svg">
<path d="M5.30273 30H7.00195V15.9082H5.2832L1.5332 18.6035V20.459L5.26367 17.7734H5.30273V30Z" fill="white"/>
<rect x="15.5" width="1" height="46" fill="url(#paint0_radial_534_532)"/>
<path d="M27.3027 30H29.002V15.9082H27.2832L23.5332 18.6035V20.459L27.2637 17.7734H27.3027V30Z" fill="white"/>
<rect x="37.5" width="1" height="46" fill="url(#paint1_radial_534_532)"/>
<path d="M49.3027 30H51.002V15.9082H49.2832L45.5332 18.6035V20.459L49.2637 17.7734H49.3027V30Z" fill="white"/>
<rect x="59.5" width="1" height="46" fill="url(#paint2_radial_534_532)"/>
<path d="M71.3027 30H73.002V15.9082H71.2832L67.5332 18.6035V20.459L71.2637 17.7734H71.3027V30Z" fill="white"/>
<rect x="81.5" width="1" height="46" fill="url(#paint3_radial_534_532)"/>
<path d="M93.3027 30H95.002V15.9082H93.2832L89.5332 18.6035V20.459L93.2637 17.7734H93.3027V30Z" fill="white"/>
<rect x="103.5" width="1" height="46" fill="url(#paint4_radial_534_532)"/>
<path d="M115.303 30H117.002V15.9082H115.283L111.533 18.6035V20.459L115.264 17.7734H115.303V30Z" fill="white"/>
<rect x="125.5" width="1" height="46" fill="url(#paint5_radial_534_532)"/>
<path d="M137.303 30H139.002V15.9082H137.283L133.533 18.6035V20.459L137.264 17.7734H137.303V30Z" fill="white"/>
<rect x="147.5" width="1" height="46" fill="url(#paint6_radial_534_532)"/>
<path d="M159.303 30H161.002V15.9082H159.283L155.533 18.6035V20.459L159.264 17.7734H159.303V30Z" fill="white"/>
<rect x="169.5" width="1" height="46" fill="url(#paint7_radial_534_532)"/>
<path d="M181.303 30H183.002V15.9082H181.283L177.533 18.6035V20.459L181.264 17.7734H181.303V30Z" fill="white"/>
<defs>
<radialGradient id="paint0_radial_534_532" cx="0" cy="0" r="1" gradientUnits="userSpaceOnUse" gradientTransform="translate(16 23) rotate(90) scale(23 0.5)">
<stop offset="0.255208" stop-color="#A1A3A4" stop-opacity="0.5"/>
<stop offset="0.520833" stop-color="#A1A3A4"/>
<stop offset="1" stop-color="#A1A3A4" stop-opacity="0"/>
</radialGradient>
<radialGradient id="paint1_radial_534_532" cx="0" cy="0" r="1" gradientUnits="userSpaceOnUse" gradientTransform="translate(38 23) rotate(90) scale(23 0.5)">
<stop offset="0.255208" stop-color="#A1A3A4" stop-opacity="0.5"/>
<stop offset="0.520833" stop-color="#A1A3A4"/>
<stop offset="1" stop-color="#A1A3A4" stop-opacity="0"/>
</radialGradient>
<radialGradient id="paint2_radial_534_532" cx="0" cy="0" r="1" gradientUnits="userSpaceOnUse" gradientTransform="translate(60 23) rotate(90) scale(23 0.5)">
<stop offset="0.255208" stop-color="#A1A3A4" stop-opacity="0.5"/>
<stop offset="0.520833" stop-color="#A1A3A4"/>
<stop offset="1" stop-color="#A1A3A4" stop-opacity="0"/>
</radialGradient>
<radialGradient id="paint3_radial_534_532" cx="0" cy="0" r="1" gradientUnits="userSpaceOnUse" gradientTransform="translate(82 23) rotate(90) scale(23 0.5)">
<stop offset="0.255208" stop-color="#A1A3A4" stop-opacity="0.5"/>
<stop offset="0.520833" stop-color="#A1A3A4"/>
<stop offset="1" stop-color="#A1A3A4" stop-opacity="0"/>
</radialGradient>
<radialGradient id="paint4_radial_534_532" cx="0" cy="0" r="1" gradientUnits="userSpaceOnUse" gradientTransform="translate(104 23) rotate(90) scale(23 0.5)">
<stop offset="0.255208" stop-color="#A1A3A4" stop-opacity="0.5"/>
<stop offset="0.520833" stop-color="#A1A3A4"/>
<stop offset="1" stop-color="#A1A3A4" stop-opacity="0"/>
</radialGradient>
<radialGradient id="paint5_radial_534_532" cx="0" cy="0" r="1" gradientUnits="userSpaceOnUse" gradientTransform="translate(126 23) rotate(90) scale(23 0.5)">
<stop offset="0.255208" stop-color="#A1A3A4" stop-opacity="0.5"/>
<stop offset="0.520833" stop-color="#A1A3A4"/>
<stop offset="1" stop-color="#A1A3A4" stop-opacity="0"/>
</radialGradient>
<radialGradient id="paint6_radial_534_532" cx="0" cy="0" r="1" gradientUnits="userSpaceOnUse" gradientTransform="translate(148 23) rotate(90) scale(23 0.5)">
<stop offset="0.255208" stop-color="#A1A3A4" stop-opacity="0.5"/>
<stop offset="0.520833" stop-color="#A1A3A4"/>
<stop offset="1" stop-color="#A1A3A4" stop-opacity="0"/>
</radialGradient>
<radialGradient id="paint7_radial_534_532" cx="0" cy="0" r="1" gradientUnits="userSpaceOnUse" gradientTransform="translate(170 23) rotate(90) scale(23 0.5)">
<stop offset="0.255208" stop-color="#A1A3A4" stop-opacity="0.5"/>
<stop offset="0.520833" stop-color="#A1A3A4"/>
<stop offset="1" stop-color="#A1A3A4" stop-opacity="0"/>
</radialGradient>
</defs>
</svg>
