<svg width="320" height="264" viewBox="0 0 320 264" fill="none" xmlns="http://www.w3.org/2000/svg">
<path d="M320 212.396H0V212.558H320V212.396Z" fill="#EBEBEB"/>
<path d="M110.861 216.535H96.0255V216.697H110.861V216.535Z" fill="#EBEBEB"/>
<path d="M293.613 220.012H257.344V220.174H293.613V220.012Z" fill="#EBEBEB"/>
<path d="M63.6096 220.012H27.3408V220.174H63.6096V220.012Z" fill="#EBEBEB"/>
<path d="M151.68 183.462H28.1023C27.1342 183.461 26.2064 183.07 25.5224 182.375C24.8385 181.681 24.4543 180.739 24.4543 179.758V3.67184C24.4628 2.69616 24.8506 1.76325 25.5337 1.07574C26.2167 0.388241 27.1398 0.00167139 28.1023 0H151.68C152.649 0 153.579 0.390271 154.264 1.08496C154.949 1.77964 155.334 2.72184 155.334 3.70428V179.758C155.334 180.74 154.949 181.683 154.264 182.377C153.579 183.072 152.649 183.462 151.68 183.462ZM28.1023 0.129748C27.1767 0.131466 26.2895 0.505407 25.6356 1.16949C24.9816 1.83358 24.6143 2.73354 24.6143 3.67184V179.758C24.6143 180.696 24.9816 181.596 25.6356 182.26C26.2895 182.924 27.1767 183.298 28.1023 183.3H151.68C152.606 183.297 153.493 182.922 154.147 182.259C154.802 181.595 155.171 180.696 155.174 179.758V3.67184C155.171 2.73347 154.802 1.83451 154.147 1.17098C153.493 0.507448 152.606 0.133166 151.68 0.129748H28.1023Z" fill="#EBEBEB"/>
<path d="M290.118 183.462H166.534C165.566 183.459 164.639 183.067 163.954 182.374C163.269 181.68 162.883 180.739 162.88 179.758V3.67184C162.89 2.69557 163.279 1.76266 163.963 1.07534C164.647 0.388014 165.571 0.00165316 166.534 0H290.118C291.08 0.00337634 292.001 0.3907 292.683 1.07802C293.365 1.76534 293.752 2.69728 293.76 3.67184V179.758C293.761 180.244 293.667 180.725 293.485 181.174C293.302 181.623 293.034 182.031 292.696 182.375C292.358 182.719 291.956 182.992 291.514 183.178C291.072 183.365 290.597 183.461 290.118 183.462ZM166.534 0.129748C165.609 0.133166 164.722 0.507448 164.067 1.17098C163.413 1.83451 163.043 2.73347 163.04 3.67184V179.758C163.043 180.696 163.413 181.595 164.067 182.259C164.722 182.922 165.609 183.297 166.534 183.3H290.118C291.044 183.297 291.931 182.922 292.586 182.259C293.24 181.595 293.609 180.696 293.613 179.758V3.67184C293.609 2.73347 293.24 1.83451 292.586 1.17098C291.931 0.507448 291.044 0.133166 290.118 0.129748H166.534Z" fill="#EBEBEB"/>
<path d="M97.1392 227.894C97.1392 227.894 109.702 220.758 110.541 210.579C111.379 200.401 101.498 198.351 97.1392 194.789C92.7808 191.228 92.6208 187.997 92.448 182.055C92.2752 176.112 90.4384 169.826 83.9104 163.89C77.3824 157.954 76.704 155.742 77.5104 147.762C78.3168 139.783 72.9856 129.766 66.2848 131.466C59.584 133.166 59.0848 143.857 60.4224 150.649C61.6447 157.256 60.4113 164.087 56.96 169.826C53.76 174.925 52.4352 183.923 56.96 189.697C61.4848 195.47 64.4992 200.563 62.3168 206.674C60.1344 212.785 53.44 215.159 61.1456 227.894H97.1392Z" fill="#E6E6E6"/>
<path d="M207.84 227.777H229.446C229.446 227.777 231.456 209.781 231.123 195.178C230.79 180.575 229.952 157.487 220.883 158.162C211.814 158.836 201.478 182.444 207.84 227.777Z" fill="#F5F5F5"/>
<path d="M219.309 227.777C219.309 227.777 240.333 180.238 257.254 189.573C274.176 198.909 239.098 228.017 239.098 228.017L219.309 227.777Z" fill="#F0F0F0"/>
<path d="M216.781 228.017C216.781 228.017 218.163 212.545 212.422 196.722C206.682 180.9 199.565 171.422 191.526 174.477C183.488 177.533 184.179 198.085 194.97 227.777L216.781 228.017Z" fill="#E6E6E6"/>
<path d="M229.446 227.777C229.446 227.777 238.598 213.246 243.648 199.512C248.698 185.778 249.85 175.509 245.254 172.979C240.659 170.449 219.078 194.14 216.781 228.017L229.446 227.777Z" fill="#E6E6E6"/>
<path d="M201.517 227.777C201.517 227.777 189.69 181.393 169.485 188.36C149.28 195.328 185.485 228.017 185.485 228.017H202.534" fill="#F0F0F0"/>
<path d="M239.226 215.121C239.226 215.121 241.683 199.875 260.915 180.926C280.147 161.976 285.946 147.925 282.515 128.826C282.515 128.826 300.064 153.802 288.71 184.507C277.357 215.211 259.738 225.5 245.28 229.542C230.822 233.584 239.226 215.121 239.226 215.121Z" fill="#EBEBEB" stroke="#EBEBEB" stroke-miterlimit="10"/>
<path d="M239.469 229.762C243.366 219.461 249.306 213.401 255.968 207.258C258.406 205.007 260.947 202.717 263.52 200.258C265.274 198.565 267.046 196.761 268.806 194.789C270.741 192.635 272.561 190.379 274.259 188.029C276.178 185.37 277.939 182.597 279.533 179.726C279.866 179.135 280.173 178.538 280.518 177.916C280.934 177.118 281.338 176.326 281.709 175.541C291.603 154.782 286.31 137.149 283.45 130.311C283.028 129.269 282.545 128.253 282.003 127.269" stroke="#E0E0E0" stroke-width="2" stroke-miterlimit="10"/>
<path d="M275.507 163.734C278.89 166.796 281.09 170.975 281.715 175.528" stroke="#E0E0E0" stroke-width="2" stroke-miterlimit="10"/>
<path d="M274.266 188.023C274.086 183.547 270.182 177.027 267.904 173.582" stroke="#E0E0E0" stroke-width="2" stroke-miterlimit="10"/>
<path d="M257.152 184.812C258.938 187.673 262.656 194.192 263.52 200.258" stroke="#E0E0E0" stroke-width="2" stroke-miterlimit="10"/>
<path d="M256 207.258C256 207.258 267.078 205.513 275.994 208.477" stroke="#E0E0E0" stroke-width="2" stroke-miterlimit="10"/>
<path d="M285.83 191.578C278.304 190.709 269.075 194.679 268.813 194.783" stroke="#E0E0E0" stroke-width="2" stroke-miterlimit="10"/>
<path d="M291.52 174.315C285.414 175.366 279.744 179.563 279.539 179.713" stroke="#E0E0E0" stroke-width="2" stroke-miterlimit="10"/>
<path d="M160 263.211C228.533 263.211 284.09 259.923 284.09 255.868C284.09 251.812 228.533 248.524 160 248.524C91.4672 248.524 35.9104 251.812 35.9104 255.868C35.9104 259.923 91.4672 263.211 160 263.211Z" fill="#F5F5F5"/>
<path opacity="0.12" d="M149.517 80.7934C147.808 80.3199 147.776 78.0947 147.776 78.0947L149.414 78.4256C149.325 79.2154 149.359 80.0146 149.517 80.7934Z" fill="black"/>
<path d="M239.526 20.1432V113.665C239.526 115.052 238.983 116.382 238.016 117.362C237.048 118.343 235.736 118.894 234.368 118.894H94.944C93.582 118.885 92.2788 118.33 91.3194 117.35C90.3599 116.37 89.8223 115.045 89.824 113.665V20.1432C89.8223 18.7626 90.3599 17.4376 91.3194 16.4577C92.2788 15.4779 93.582 14.923 94.944 14.9144H234.368C235.045 14.9144 235.716 15.0496 236.342 15.3124C236.968 15.5752 237.537 15.9603 238.016 16.4459C238.495 16.9314 238.874 17.5078 239.134 18.1422C239.393 18.7766 239.526 19.4565 239.526 20.1432Z" fill="#1DA1F2"/>
<path opacity="0.7" d="M239.526 20.1432V113.665C239.526 115.052 238.983 116.382 238.016 117.362C237.048 118.343 235.736 118.894 234.368 118.894H94.944C93.582 118.885 92.2788 118.33 91.3194 117.35C90.3599 116.37 89.8223 115.045 89.824 113.665V20.1432C89.8223 18.7626 90.3599 17.4376 91.3194 16.4577C92.2788 15.4779 93.582 14.923 94.944 14.9144H234.368C235.045 14.9144 235.716 15.0496 236.342 15.3124C236.968 15.5752 237.537 15.9603 238.016 16.4459C238.495 16.9314 238.874 17.5078 239.134 18.1422C239.393 18.7766 239.526 19.4565 239.526 20.1432Z" fill="white" stroke="white" stroke-miterlimit="10"/>
<path d="M230.848 22.7706C231.615 22.7706 232.237 22.1403 232.237 21.3628C232.237 20.5854 231.615 19.9551 230.848 19.9551C230.081 19.9551 229.459 20.5854 229.459 21.3628C229.459 22.1403 230.081 22.7706 230.848 22.7706Z" fill="#1DA1F2"/>
<path d="M224.211 21.3628C224.212 21.6428 224.132 21.9169 223.979 22.1503C223.827 22.3837 223.609 22.566 223.354 22.6741C223.1 22.7821 222.819 22.811 222.548 22.7572C222.277 22.7034 222.027 22.5692 221.832 22.3717C221.636 22.1741 221.502 21.9221 221.448 21.6476C221.394 21.3731 221.421 21.0884 221.526 20.8296C221.632 20.5708 221.811 20.3496 222.04 20.1939C222.27 20.0382 222.54 19.9551 222.816 19.9551C223.184 19.9568 223.537 20.1054 223.798 20.3689C224.06 20.6323 224.208 20.9894 224.211 21.3628Z" fill="#1DA1F2"/>
<path d="M216.179 21.3628C216.18 21.6428 216.1 21.9169 215.947 22.1503C215.795 22.3837 215.577 22.566 215.322 22.6741C215.067 22.7821 214.787 22.811 214.516 22.7572C214.245 22.7034 213.995 22.5692 213.8 22.3717C213.604 22.1741 213.47 21.9221 213.416 21.6476C213.362 21.3731 213.389 21.0884 213.494 20.8296C213.6 20.5708 213.779 20.3496 214.008 20.1939C214.238 20.0382 214.508 19.9551 214.784 19.9551C215.152 19.9568 215.505 20.1054 215.766 20.3689C216.027 20.6323 216.176 20.9894 216.179 21.3628Z" fill="#1DA1F2"/>
<path d="M228.557 39.1252V132.647C228.548 134.026 228.002 135.346 227.037 136.319C226.071 137.291 224.766 137.837 223.405 137.837H83.9744C82.6135 137.837 81.3079 137.291 80.3426 136.319C79.3774 135.346 78.8308 134.026 78.8224 132.647V39.1252C78.8224 37.7396 79.365 36.4106 80.331 35.4302C81.297 34.4498 82.6074 33.8981 83.9744 33.8964H223.405C224.772 33.8981 226.082 34.4498 227.048 35.4302C228.014 36.4106 228.557 37.7396 228.557 39.1252Z" fill="#1DA1F2"/>
<path opacity="0.8" d="M228.557 39.1252V132.647C228.548 134.026 228.002 135.346 227.037 136.319C226.071 137.291 224.766 137.837 223.405 137.837H83.9744C82.6135 137.837 81.3079 137.291 80.3426 136.319C79.3774 135.346 78.8308 134.026 78.8224 132.647V39.1252C78.8224 37.7396 79.365 36.4106 80.331 35.4302C81.297 34.4498 82.6074 33.8981 83.9744 33.8964H223.405C224.772 33.8981 226.082 34.4498 227.048 35.4302C228.014 36.4106 228.557 37.7396 228.557 39.1252Z" fill="white"/>
<path d="M228.563 44.873H195.162V130.428H228.563V44.873Z" fill="#1DA1F2"/>
<path opacity="0.2" d="M228.563 44.873H195.162V130.428H228.563V44.873Z" fill="black"/>
<path d="M228.563 70.5694H195.162V71.6593H228.563V70.5694Z" fill="#FAFAFA"/>
<path d="M228.563 97.4205H195.162V98.5104H228.563V97.4205Z" fill="#FAFAFA"/>
<path d="M228.563 123.876H195.162V124.966H228.563V123.876Z" fill="#FAFAFA"/>
<path d="M209.728 78.0558V90.8359L219.251 84.4458L209.728 78.0558Z" fill="#FAFAFA"/>
<path d="M209.728 104.797V117.583L219.251 111.193L209.728 104.797Z" fill="#FAFAFA"/>
<path d="M209.728 50.8413V63.6279L219.251 57.2314L209.728 50.8413Z" fill="#FAFAFA"/>
<path d="M127.795 97.4205C127.795 97.4205 119.258 110.324 116.595 112.886C116.595 112.886 102.285 114.184 96.3968 110.103L94.9056 113.808C94.9056 113.808 108.499 121.592 117.709 119.692C126.918 117.791 133.709 99.7689 133.709 99.7689L127.795 97.4205Z" fill="#B55B52"/>
<path d="M169.286 89.746C169.286 89.746 177.446 92.0101 182.534 92.4447C182.534 92.4447 186.374 83.4079 187.014 75.2014L189.907 75.3635C189.907 75.3635 192.57 91.3484 185.587 97.8227C180.762 102.306 164.659 94.0017 164.659 94.0017L169.286 89.746Z" fill="#B55B52"/>
<path d="M146.323 54.4937C146.323 54.4937 135.264 53.4103 134.118 64.8346C133.486 71.9244 134.617 79.0618 137.408 85.5941C137.408 85.5941 144.096 99.3927 152.205 97.4724C160.314 95.5522 167.187 91.1018 165.754 83.6544C164.32 76.2069 161.651 76.5183 161.747 66.1385C161.843 55.7588 152.237 49.732 146.323 54.4937Z" fill="#263238"/>
<path d="M158.394 70.8548C157.235 76.5832 154.656 78.8667 149.434 78.4256C149.344 79.2154 149.378 80.0146 149.536 80.7934C149.666 81.7268 150.092 82.5919 150.751 83.2579C151.409 83.9239 152.263 84.3545 153.184 84.4847C157.664 85.2697 155.213 91.1148 155.213 91.1148L150.733 93.3465L144.838 89.9017L140.358 85.0556H141.926C141.926 85.0556 144.96 80.4042 141.926 72.574C141.263 72.1803 140.704 71.6292 140.297 70.9682C139.89 70.3071 139.648 69.5559 139.59 68.7789C139.462 66.1839 142.106 66.0282 143.104 67.0013C143.104 67.0013 147.654 64.9903 146.976 57.2184C146.976 57.2184 151.456 60.6308 157.216 59.6382C157.21 59.6836 159.546 65.12 158.394 70.8548Z" fill="#B55B52"/>
<path d="M154.278 66.0866L154.336 70.0958C154.654 70.22 154.994 70.2738 155.334 70.2537C155.674 70.2335 156.006 70.1399 156.307 69.979L154.278 66.0866Z" fill="#A02724"/>
<path d="M148.218 61.5779C148.18 61.5866 148.14 61.5866 148.102 61.5779C148.078 61.5626 148.057 61.5426 148.04 61.519C148.023 61.4954 148.011 61.4687 148.005 61.4403C147.998 61.412 147.997 61.3826 148.002 61.3539C148.006 61.3252 148.017 61.2977 148.032 61.273C148.33 60.8126 148.775 60.4703 149.292 60.3036C149.81 60.137 150.368 60.1563 150.874 60.3583C150.901 60.367 150.926 60.3813 150.948 60.4002C150.97 60.4192 150.987 60.4424 151 60.4685C151.012 60.4946 151.02 60.523 151.021 60.552C151.022 60.581 151.018 60.61 151.008 60.6372C150.989 60.6921 150.95 60.7372 150.898 60.7627C150.846 60.7883 150.787 60.7921 150.733 60.7735C150.321 60.6025 149.864 60.5815 149.44 60.714C149.015 60.8465 148.648 61.1243 148.403 61.5001C148.381 61.5272 148.352 61.5484 148.32 61.562C148.287 61.5755 148.252 61.581 148.218 61.5779Z" fill="#263238"/>
<path d="M158.125 62.817C158.068 62.8173 158.014 62.7965 157.971 62.7586C157.331 62.1683 156.218 62.6029 156.205 62.6094C156.15 62.6286 156.091 62.6259 156.038 62.6017C155.986 62.5775 155.945 62.5338 155.923 62.4796C155.913 62.4524 155.908 62.4234 155.909 62.3942C155.91 62.3651 155.916 62.3364 155.928 62.3099C155.94 62.2833 155.957 62.2594 155.978 62.2396C155.999 62.2197 156.024 62.2043 156.051 62.1942C156.102 62.1942 157.453 61.6558 158.272 62.4342C158.313 62.4756 158.335 62.5316 158.335 62.5899C158.335 62.6483 158.313 62.7043 158.272 62.7456C158.233 62.7868 158.181 62.8122 158.125 62.817Z" fill="#263238"/>
<path d="M152.595 72.0096C151.85 72.0412 151.11 71.8731 150.449 71.5223C149.788 71.1715 149.231 70.6504 148.832 70.0115C148.821 69.9741 148.823 69.934 148.838 69.898C148.852 69.8619 148.879 69.8322 148.913 69.8138C148.947 69.7955 148.986 69.7896 149.024 69.7973C149.062 69.8049 149.096 69.8256 149.12 69.8558C149.492 70.4419 150.01 70.9187 150.621 71.2385C151.232 71.5584 151.915 71.7102 152.602 71.6787C152.644 71.6787 152.685 71.6958 152.715 71.7262C152.745 71.7566 152.762 71.7979 152.762 71.8409C152.762 71.8857 152.744 71.9285 152.713 71.9602C152.682 71.9918 152.639 72.0096 152.595 72.0096Z" fill="#263238"/>
<path d="M151.45 65.399C151.45 65.879 151.213 66.2683 150.893 66.2813C150.573 66.2942 150.304 65.9115 150.291 65.4314C150.278 64.9513 150.522 64.5621 150.842 64.5491C151.162 64.5362 151.437 64.9189 151.45 65.399Z" fill="#263238"/>
<path d="M157.139 65.4509C157.139 65.9244 156.902 66.3202 156.582 66.3331C156.262 66.3461 155.994 65.9634 155.974 65.4833C155.955 65.0032 156.211 64.614 156.531 64.601C156.851 64.588 157.126 64.9708 157.139 65.4509Z" fill="#263238"/>
<path d="M150.752 64.5686L152.205 64.1469C152.205 64.1469 151.942 64.9384 150.752 64.5686Z" fill="#263238"/>
<path d="M156.531 64.601L157.6 64.4453C157.556 64.5448 157.487 64.6313 157.401 64.6969C157.315 64.7624 157.214 64.805 157.108 64.8205C157.001 64.836 156.893 64.824 156.792 64.7857C156.691 64.7473 156.601 64.6838 156.531 64.601Z" fill="#263238"/>
<path d="M172.051 89.4865L167.04 100.671L164.378 99.6911C164.378 99.6911 164.646 119.996 162.458 130.428H136.41L134.912 102.714L133.549 105.608L123.949 100.145C123.949 100.145 126.605 89.1167 130.752 87.1705C132.73 86.2428 136.947 85.5292 141.286 85.0686C145.24 84.6146 149.219 84.4239 153.197 84.4977C153.197 84.4977 153.606 84.4977 154.33 84.4977C160.54 84.7332 166.61 86.4419 172.051 89.4865Z" fill="#1DA1F2"/>
<path d="M187.014 75.2013C186.026 73.7775 185.37 72.1449 185.094 70.4267C184.824 68.5771 184.993 66.689 185.587 64.9189L190.758 64.7372L191.398 69.3238C191.652 71.4526 191.126 73.6016 189.92 75.3635L187.014 75.2013Z" fill="#B55B52"/>
<path d="M96.3967 110.103L93.7024 105.231L90.4255 104.077L88.0959 108.488L90.1759 111.381C90.1759 111.381 92.9215 113.743 94.9055 113.808L96.3967 110.103Z" fill="#B55B52"/>
<path d="M154.298 84.4977C154.253 91.4911 149.939 99.1527 149.939 99.1527C146.099 95.3965 142.259 87.3392 141.254 85.0556C145.208 84.6017 149.187 84.411 153.165 84.4848C153.165 84.4848 153.6 84.4718 154.298 84.4977Z" fill="#B55B52"/>
<path opacity="0.12" d="M133.542 105.608L134.886 98.1017L134.912 102.721L133.542 105.608Z" fill="black"/>
<path opacity="0.12" d="M167.053 100.671L162.752 97.4205L164.39 99.6911L167.053 100.671Z" fill="black"/>
<path d="M138.72 221.439L144.877 228.193L130.592 241.965L125.498 238.293L138.72 221.439Z" fill="#B55B52"/>
<path d="M131.84 241.641C132.186 243.743 132.691 246.085 135.635 250.198C136.275 251.112 134.573 252.825 132.646 251.015C130.72 249.205 127.955 246.364 126.56 245.06C124.288 242.925 123.36 242.218 121.51 240.557C121.482 240.537 121.456 240.513 121.434 240.486C121.346 240.393 121.276 240.283 121.23 240.163C121.184 240.043 121.162 239.914 121.165 239.785C121.168 239.656 121.196 239.529 121.248 239.411C121.299 239.293 121.373 239.187 121.466 239.098L125.517 235.77C125.61 235.696 125.727 235.66 125.845 235.668C125.964 235.677 126.074 235.729 126.157 235.815L131.322 240.655C131.593 240.919 131.775 241.265 131.84 241.641Z" fill="#263238"/>
<path d="M131.066 241.518C131.05 241.492 131.041 241.463 131.041 241.433C131.041 241.403 131.05 241.374 131.066 241.349C131.085 241.335 131.107 241.327 131.131 241.323C131.154 241.32 131.178 241.322 131.2 241.329C131.494 241.427 134.125 242.251 134.4 243.068C134.427 243.144 134.435 243.225 134.423 243.304C134.411 243.384 134.378 243.459 134.33 243.522C134.259 243.627 134.163 243.711 134.051 243.767C133.939 243.822 133.814 243.848 133.69 243.84C133.174 243.731 132.705 243.458 132.352 243.062C131.879 242.587 131.448 242.07 131.066 241.518ZM131.558 241.712C132.435 242.841 133.229 243.516 133.715 243.516C133.798 243.521 133.881 243.504 133.955 243.467C134.029 243.429 134.092 243.372 134.138 243.302C134.153 243.275 134.161 243.245 134.161 243.214C134.161 243.183 134.153 243.153 134.138 243.126C134.097 243.037 134.038 242.957 133.965 242.893C133.229 242.373 132.417 241.974 131.558 241.712Z" fill="#1DA1F2"/>
<path d="M131.027 241.459C131.021 241.435 131.021 241.41 131.028 241.386C131.034 241.362 131.048 241.34 131.066 241.323C131.11 241.277 132.269 240.201 133.254 240.285C133.549 240.308 133.822 240.448 134.016 240.674C134.291 240.992 134.246 241.219 134.163 241.323C133.798 241.9 131.885 241.829 131.123 241.55L131.072 241.518C131.054 241.501 131.039 241.481 131.027 241.459ZM133.248 240.577C132.581 240.641 131.952 240.924 131.456 241.381C132.301 241.582 133.696 241.524 133.914 241.18C133.914 241.18 133.984 241.07 133.805 240.862L133.741 240.797C133.606 240.67 133.432 240.592 133.248 240.577Z" fill="#1DA1F2"/>
<path d="M135.923 233.772L144.314 233.648L143.149 255.024L137.114 254.81L135.923 233.772Z" fill="#B55B52"/>
<path d="M144.57 253.448C146.278 254.81 147.13 256.244 151.917 257.301C152.986 257.541 153.018 260.078 150.49 260.058C147.962 260.039 145.267 259.812 143.45 259.812C140.474 259.812 139.341 259.948 136.986 259.948C136.846 259.946 136.708 259.915 136.581 259.859C136.453 259.802 136.337 259.721 136.24 259.619C136.143 259.517 136.067 259.397 136.016 259.265C135.965 259.134 135.94 258.993 135.942 258.852L136.352 253.441C136.359 253.325 136.41 253.217 136.495 253.139C136.58 253.061 136.692 253.021 136.806 253.026L143.584 253.072C143.944 253.088 144.289 253.22 144.57 253.448Z" fill="#263238"/>
<path d="M140.64 122.76C139.91 136.027 157.114 175.684 159.034 189.58C153.107 203.534 137.6 221.322 137.6 221.322L144.947 229.445C144.947 229.445 170.675 206.2 172.013 190.001C173.126 176.151 163.462 124.09 163.462 124.09L140.64 122.76Z" fill="#1DA1F2"/>
<path d="M140.64 122.76C139.91 136.027 157.114 175.684 159.034 189.58C153.107 203.534 137.6 221.322 137.6 221.322L144.947 229.445C144.947 229.445 170.675 206.2 172.013 190.001C173.126 176.151 163.462 124.09 163.462 124.09L140.64 122.76Z" fill="#263238"/>
<path d="M137.792 219.428L147.405 228.679L144.813 230.327L136.019 222.309L137.792 219.428Z" fill="#1DA1F2"/>
<path opacity="0.3" d="M146.176 147.944C150.208 160.568 155.379 174.315 157.798 183.702C158.24 173.491 157.901 155.301 150.854 145.427C147.565 140.775 146.266 143.091 146.176 147.944Z" fill="black"/>
<path d="M136.256 122.916C131.258 136.87 135.149 168.373 135.418 190.949C133.92 207.965 135.923 233.765 135.923 233.765L144.947 234.141C144.947 234.141 147.667 203.69 149.523 184.688C151.098 168.691 156.717 123.707 156.717 123.707L136.256 122.916Z" fill="#1DA1F2"/>
<path d="M135.974 122.429C130.976 136.377 135.149 168.373 135.418 190.949C133.92 207.965 135.923 233.765 135.923 233.765L144.947 234.141C144.947 234.141 147.667 203.69 149.523 184.688C151.098 168.691 156.717 123.707 156.717 123.707L135.974 122.429Z" fill="#263238"/>
<path d="M134.611 231.521L146.31 231.851L145.587 235.147L135.245 235.445L134.611 231.521Z" fill="#1DA1F2"/>
<path d="M146.829 253.876C146.291 254.401 144.909 254.148 144.09 253.96C144.062 253.951 144.036 253.935 144.016 253.914C143.996 253.892 143.982 253.866 143.974 253.837C143.969 253.81 143.972 253.782 143.983 253.757C143.993 253.732 144.01 253.71 144.032 253.694C144.224 253.558 145.952 252.397 146.701 252.702C146.783 252.738 146.855 252.795 146.909 252.868C146.963 252.941 146.997 253.026 147.008 253.117C147.036 253.228 147.039 253.344 147.017 253.456C146.995 253.568 146.948 253.674 146.88 253.766C146.875 253.807 146.857 253.846 146.829 253.876ZM144.486 253.72C145.549 253.941 146.336 253.908 146.624 253.642C146.685 253.574 146.726 253.491 146.745 253.4C146.763 253.31 146.756 253.217 146.726 253.13C146.726 253.089 146.714 253.049 146.691 253.016C146.668 252.982 146.636 252.956 146.598 252.942C146.221 252.773 145.197 253.286 144.486 253.74V253.72Z" fill="#1DA1F2"/>
<path d="M144.192 253.908C144.17 253.918 144.146 253.923 144.122 253.923C144.097 253.923 144.073 253.918 144.051 253.908C144.03 253.895 144.011 253.877 143.997 253.855C143.983 253.834 143.973 253.81 143.968 253.785C143.968 253.707 143.866 251.949 144.474 251.365C144.551 251.288 144.645 251.231 144.749 251.198C144.852 251.165 144.962 251.158 145.069 251.177C145.185 251.182 145.297 251.224 145.388 251.297C145.479 251.371 145.544 251.472 145.574 251.586C145.576 251.892 145.517 252.195 145.402 252.478C145.286 252.761 145.117 253.018 144.902 253.234C144.703 253.496 144.463 253.723 144.192 253.908ZM144.243 253.506C144.794 253.046 145.408 252.06 145.299 251.638C145.287 251.582 145.254 251.533 145.208 251.501C145.162 251.468 145.105 251.455 145.05 251.463C144.982 251.45 144.913 251.454 144.848 251.476C144.783 251.497 144.725 251.535 144.678 251.586L144.621 251.651C144.328 252.222 144.197 252.864 144.243 253.506Z" fill="#1DA1F2"/>
<path d="M141.971 83.5376H139.763V96.7199H141.971V83.5376Z" fill="#FAFAFA"/>
<path d="M136.8 83.5376H134.592V96.7199H136.8V83.5376Z" fill="#FAFAFA"/>
<path d="M148.136 93.154C149.48 87.4092 145.975 81.6478 140.307 80.2857C134.64 78.9235 128.956 82.4763 127.612 88.2211C126.269 93.9659 129.774 99.7273 135.441 101.089C141.108 102.452 146.792 98.8988 148.136 93.154Z" stroke="#FAFAFA" stroke-width="0.996895" stroke-miterlimit="10"/>
<path d="M228.557 39.1252V44.873H78.7968V39.1252C78.7968 37.7396 79.3393 36.4106 80.3053 35.4302C81.2714 34.4498 82.5818 33.8981 83.9488 33.8964H223.405C224.772 33.8981 226.082 34.4498 227.048 35.4302C228.014 36.4106 228.557 37.7396 228.557 39.1252Z" fill="#1DA1F2"/>
<path d="M228.557 130.428V132.647C228.548 134.026 228.002 135.346 227.037 136.319C226.071 137.291 224.766 137.837 223.405 137.837H83.9744C82.6135 137.837 81.3079 137.291 80.3426 136.319C79.3774 135.346 78.8308 134.026 78.8224 132.647V130.428H228.557Z" fill="#1DA1F2"/>
<path d="M108.39 42.2326H86.5153C85.8866 42.2326 85.2837 41.98 84.8386 41.53C84.3935 41.08 84.1426 40.4695 84.1409 39.8323C84.1409 39.194 84.391 38.5818 84.8363 38.1305C85.2816 37.6791 85.8855 37.4255 86.5153 37.4255H108.39C108.702 37.4255 109.011 37.4878 109.299 37.6087C109.587 37.7297 109.849 37.907 110.069 38.1305C110.29 38.354 110.465 38.6193 110.584 38.9113C110.703 39.2033 110.765 39.5163 110.765 39.8323C110.763 40.4695 110.512 41.08 110.067 41.53C109.622 41.98 109.019 42.2326 108.39 42.2326Z" stroke="white" stroke-width="0.5" stroke-miterlimit="10"/>
<path d="M120.269 42.2326H117.069C116.441 42.2326 115.838 41.9798 115.394 41.5296C114.95 41.0795 114.701 40.4689 114.701 39.8323C114.701 39.1951 114.95 38.5839 115.394 38.1327C115.838 37.6816 116.44 37.4272 117.069 37.4255H120.269C120.899 37.4255 121.502 37.6791 121.948 38.1305C122.393 38.5818 122.643 39.194 122.643 39.8323C122.642 40.4695 122.391 41.08 121.946 41.53C121.5 41.98 120.897 42.2326 120.269 42.2326Z" stroke="white" stroke-width="0.5" stroke-miterlimit="10"/>
<path d="M182.394 47.8247H91.936C86.6199 47.8247 82.3104 52.1931 82.3104 57.5817V118.2C82.3104 123.588 86.6199 127.956 91.936 127.956H182.394C187.71 127.956 192.019 123.588 192.019 118.2V57.5817C192.019 52.1931 187.71 47.8247 182.394 47.8247Z" stroke="white" stroke-width="0.5" stroke-miterlimit="10"/>
<path d="M116.013 54.7402H77.3504C74.4344 54.7402 72.0704 57.1365 72.0704 60.0923V74.0531C72.0704 77.0089 74.4344 79.4051 77.3504 79.4051H116.013C118.929 79.4051 121.293 77.0089 121.293 74.0531V60.0923C121.293 57.1365 118.929 54.7402 116.013 54.7402Z" fill="#1DA1F2"/>
<path d="M123.174 58.9505V75.1689C123.179 75.7226 123.075 76.2717 122.869 76.7846C122.663 77.2975 122.36 77.7642 121.976 78.1578C121.591 78.5515 121.134 78.8643 120.631 79.0783C120.127 79.2924 119.586 79.4035 119.04 79.4051H104.211C99.7312 80.9751 102.534 87.2613 102.63 87.4884C101.777 87.1923 100.979 86.7538 100.269 86.1909C97.0688 83.596 97.5168 79.4116 97.5168 79.4116H78.08C76.9784 79.4116 75.9219 78.9681 75.1429 78.1785C74.364 77.3889 73.9264 76.318 73.9264 75.2013V58.983C73.9264 57.8663 74.364 56.7954 75.1429 56.0058C75.9219 55.2163 76.9784 54.7727 78.08 54.7727H119.04C120.133 54.7761 121.181 55.2169 121.955 55.9993C122.729 56.7817 123.168 57.8424 123.174 58.9505Z" fill="#1DA1F2"/>
<path opacity="0.2" d="M121.286 58.9505V75.1689C121.291 75.7253 121.186 76.2771 120.978 76.7921C120.77 77.3072 120.464 77.7753 120.076 78.1694C119.689 78.5634 119.228 78.8756 118.72 79.0877C118.213 79.2998 117.669 79.4077 117.12 79.4051H102.323C99.0464 80.5469 99.6608 84.2058 100.269 86.1844C97.0688 83.5895 97.5168 79.4051 97.5168 79.4051H76.2176C75.6725 79.4051 75.1327 79.2962 74.6291 79.0845C74.1255 78.8729 73.668 78.5626 73.2829 78.1716C72.8977 77.7805 72.5923 77.3163 72.3843 76.8056C72.1762 76.2948 72.0696 75.7475 72.0704 75.1949V58.9765C72.0696 58.4239 72.1762 57.8765 72.3843 57.3658C72.5923 56.855 72.8977 56.3908 73.2829 55.9998C73.668 55.6087 74.1255 55.2985 74.6291 55.0868C75.1327 54.8751 75.6725 54.7662 76.2176 54.7662H117.12C117.665 54.7636 118.204 54.8698 118.709 55.0787C119.213 55.2876 119.671 55.5951 120.058 55.9837C120.445 56.3722 120.753 56.8342 120.963 57.3433C121.174 57.8523 121.284 58.3985 121.286 58.9505Z" fill="white"/>
<path d="M117.453 58.6586H75.648V60.9032H117.453V58.6586Z" fill="#1DA1F2"/>
<path d="M117.453 62.7781H75.648V65.0227H117.453V62.7781Z" fill="#1DA1F2"/>
<path d="M117.453 66.904H75.648V69.1487H117.453V66.904Z" fill="#1DA1F2"/>
<path opacity="0.1" d="M117.453 58.6586H75.648V60.9032H117.453V58.6586Z" fill="black"/>
<path opacity="0.1" d="M117.453 62.7781H75.648V65.0227H117.453V62.7781Z" fill="black"/>
<path opacity="0.1" d="M117.453 66.904H75.648V69.1487H117.453V66.904Z" fill="black"/>
</svg>
